G04*
G04 #@! TF.GenerationSoftware,Altium Limited,Altium Designer,21.2.0 (30)*
G04*
G04 Layer_Color=16711935*
%FSLAX25Y25*%
%MOIN*%
G70*
G04*
G04 #@! TF.SameCoordinates,23E6F6A8-B4C1-47F9-9D7B-204F1C257D05*
G04*
G04*
G04 #@! TF.FilePolarity,Positive*
G04*
G01*
G75*
%ADD10C,0.00984*%
D10*
X181102Y240158D02*
X180083Y240023D01*
X179134Y239630D01*
X178319Y239004D01*
X177693Y238189D01*
X177299Y237239D01*
X177165Y236221D01*
X204724Y0D02*
X205743Y134D01*
X206693Y527D01*
X207508Y1153D01*
X208134Y1969D01*
X208527Y2918D01*
X208661Y3937D01*
Y236221D02*
X208527Y237239D01*
X208134Y238189D01*
X207508Y239004D01*
X206693Y239630D01*
X205743Y240023D01*
X204724Y240158D01*
X173228Y216535D02*
X174247Y216670D01*
X175197Y217063D01*
X176012Y217688D01*
X176638Y218504D01*
X177031Y219454D01*
X177165Y220472D01*
X3937Y216535D02*
X2918Y216401D01*
X1969Y216008D01*
X1153Y215382D01*
X527Y214567D01*
X134Y213617D01*
X0Y212598D01*
Y5000D02*
X96Y4025D01*
X381Y3087D01*
X843Y2222D01*
X1464Y1464D01*
X2222Y843D01*
X3087Y381D01*
X4025Y96D01*
X5000Y0D01*
X181102Y240158D02*
X204724D01*
X3937Y216535D02*
X173228D01*
X7874Y0D02*
X204724D01*
X208661Y3937D02*
Y224410D01*
Y236221D01*
X177165Y220472D02*
Y236221D01*
X0Y208661D02*
Y212598D01*
Y5000D02*
Y208661D01*
X5000Y0D02*
X7874D01*
X19685D01*
M02*
