G04*
G04 #@! TF.GenerationSoftware,Altium Limited,Altium Designer,21.2.0 (30)*
G04*
G04 Layer_Color=65535*
%FSLAX25Y25*%
%MOIN*%
G70*
G04*
G04 #@! TF.SameCoordinates,23E6F6A8-B4C1-47F9-9D7B-204F1C257D05*
G04*
G04*
G04 #@! TF.FilePolarity,Positive*
G04*
G01*
G75*
%ADD10C,0.00984*%
%ADD11C,0.02362*%
%ADD12C,0.00591*%
%ADD13C,0.00100*%
%ADD14C,0.00787*%
%ADD15C,0.00197*%
%ADD16C,0.00394*%
%ADD17C,0.00591*%
D10*
X84350Y160886D02*
X83612Y161312D01*
Y160460D01*
X84350Y160886D01*
X48116Y66226D02*
X47378Y66652D01*
Y65799D01*
X48116Y66226D01*
X75984Y65650D02*
X75246Y66076D01*
Y65223D01*
X75984Y65650D01*
X25295Y14567D02*
X24557Y14993D01*
Y14141D01*
X25295Y14567D01*
D11*
X94587Y156299D02*
X94142Y157223D01*
X93143Y157451D01*
X92341Y156812D01*
Y155787D01*
X93143Y155148D01*
X94142Y155376D01*
X94587Y156299D01*
D12*
X70276Y147244D02*
D03*
X144685Y105118D02*
D03*
X156102Y104331D02*
D03*
D13*
X103172Y65990D02*
X133672D01*
X104572Y68190D02*
X133972D01*
X103172Y66090D02*
X133572D01*
X103272Y66290D02*
X133572D01*
X103372Y66390D02*
X133572D01*
X103472Y66490D02*
X133572D01*
X103472Y66590D02*
X133572D01*
X103572Y66690D02*
X133572D01*
X103672Y66790D02*
X133572D01*
X103672Y66890D02*
X133572D01*
X103772Y66990D02*
X133572D01*
X103872Y67090D02*
X133572D01*
X103872Y67190D02*
X133572D01*
X103972Y67290D02*
X133572D01*
X104072Y67390D02*
X133672D01*
X104072Y67490D02*
X133672D01*
X104172Y67590D02*
X133672D01*
X104272Y67690D02*
X133672D01*
X104272Y67790D02*
X133772D01*
X104372Y67890D02*
X133772D01*
X104472Y67990D02*
X133772D01*
X104472Y68090D02*
X133872D01*
X104572Y68290D02*
X133972D01*
X104672Y68390D02*
X133972D01*
X102872Y65490D02*
X133872D01*
X102872Y65590D02*
X133772D01*
X102972Y65690D02*
X133772D01*
X102972Y65790D02*
X133672D01*
X103072Y65890D02*
X133672D01*
X98572Y89990D02*
X108472D01*
X161872Y81990D02*
X172472D01*
X161872Y73990D02*
X172772D01*
X168572Y65990D02*
X180472D01*
X98872Y90090D02*
X108172D01*
X99172Y90190D02*
X107872D01*
X99672Y90290D02*
X107572D01*
X94772Y88190D02*
X112072D01*
X92572Y86590D02*
X109272D01*
X92672Y86690D02*
X113972D01*
X92772Y86790D02*
X113972D01*
X92972Y86890D02*
X113872D01*
X93172Y86990D02*
X113772D01*
X93272Y87090D02*
X113672D01*
X93372Y87190D02*
X113572D01*
X93472Y87290D02*
X113372D01*
X93572Y87390D02*
X113172D01*
X93672Y87490D02*
X113072D01*
X93872Y87590D02*
X112972D01*
X93972Y87690D02*
X112872D01*
X94072Y87790D02*
X112672D01*
X94272Y87890D02*
X112572D01*
X94372Y87990D02*
X112472D01*
X94572Y88090D02*
X112272D01*
X91872Y85790D02*
X107172D01*
X91972Y85890D02*
X107272D01*
X92072Y85990D02*
X107472D01*
X92172Y86090D02*
X107672D01*
X92272Y86190D02*
X107872D01*
X92372Y86290D02*
X108172D01*
X92472Y86390D02*
X108472D01*
X92472Y86490D02*
X108772D01*
X94872Y88290D02*
X111972D01*
X94972Y88390D02*
X111872D01*
X95172Y88490D02*
X111672D01*
X95272Y88590D02*
X111572D01*
X95572Y88690D02*
X111372D01*
X95672Y88790D02*
X111272D01*
X95872Y88890D02*
X110972D01*
X96072Y88990D02*
X110772D01*
X96272Y89090D02*
X110572D01*
X96472Y89190D02*
X110372D01*
X96672Y89290D02*
X110172D01*
X96872Y89390D02*
X109972D01*
X97072Y89490D02*
X109872D01*
X97472Y89590D02*
X109472D01*
X97672Y89690D02*
X109172D01*
X97872Y89790D02*
X108972D01*
X98172Y89890D02*
X108772D01*
X107172Y72190D02*
X119072D01*
X104772Y68490D02*
X120272D01*
X104772Y68590D02*
X119172D01*
X104872Y68690D02*
X118172D01*
X104972Y68790D02*
X118172D01*
X104972Y68890D02*
X118172D01*
X105072Y68990D02*
X118272D01*
X105172Y69090D02*
X118272D01*
X105172Y69190D02*
X118372D01*
X105272Y69290D02*
X118372D01*
X105372Y69390D02*
X118372D01*
X105372Y69490D02*
X118372D01*
X105472Y69590D02*
X118472D01*
X105572Y69690D02*
X118472D01*
X105572Y69790D02*
X118572D01*
X105672Y69890D02*
X118572D01*
X105772Y69990D02*
X118572D01*
X105772Y70090D02*
X118672D01*
X105872Y70190D02*
X118672D01*
X105872Y70290D02*
X118672D01*
X105972Y70390D02*
X118672D01*
X106072Y70490D02*
X118672D01*
X106072Y70590D02*
X118772D01*
X106172Y70690D02*
X118772D01*
X106272Y70790D02*
X118872D01*
X106272Y70890D02*
X118872D01*
X106372Y70990D02*
X118872D01*
X106472Y71090D02*
X118872D01*
X106472Y71190D02*
X118972D01*
X106572Y71290D02*
X118972D01*
X106672Y71390D02*
X118972D01*
X106672Y71490D02*
X118972D01*
X106772Y71590D02*
X118972D01*
X106872Y71690D02*
X118972D01*
X106872Y71790D02*
X118972D01*
X106972Y71890D02*
X119072D01*
X107072Y71990D02*
X119072D01*
X107072Y72090D02*
X119072D01*
X91572Y64190D02*
X115372D01*
X91472Y64290D02*
X115472D01*
X91372Y64390D02*
X115572D01*
X91272Y64490D02*
X115572D01*
X91272Y64590D02*
X115672D01*
X91172Y64690D02*
X115772D01*
X91072Y64790D02*
X115872D01*
X90972Y64890D02*
X115972D01*
X90872Y64990D02*
X116072D01*
X90772Y65090D02*
X116172D01*
X90672Y65190D02*
X116272D01*
X90672Y65290D02*
X116272D01*
X90572Y65390D02*
X116372D01*
X94772Y61390D02*
X112172D01*
X94672Y61490D02*
X112272D01*
X94472Y61590D02*
X112372D01*
X94372Y61690D02*
X112672D01*
X94272Y61790D02*
X112772D01*
X94172Y61890D02*
X112872D01*
X93972Y61990D02*
X112972D01*
X93772Y62090D02*
X113072D01*
X93672Y62190D02*
X113272D01*
X93572Y62290D02*
X113372D01*
X93472Y62390D02*
X113472D01*
X93372Y62490D02*
X113572D01*
X93172Y62590D02*
X113672D01*
X93072Y62690D02*
X113772D01*
X92972Y62790D02*
X113972D01*
X92872Y62890D02*
X114072D01*
X92772Y62990D02*
X114172D01*
X92572Y63090D02*
X114272D01*
X92572Y63190D02*
X114372D01*
X92472Y63290D02*
X114472D01*
X92372Y63390D02*
X114572D01*
X92272Y63490D02*
X114672D01*
X92172Y63590D02*
X114772D01*
X92072Y63690D02*
X114872D01*
X91972Y63790D02*
X114972D01*
X91872Y63890D02*
X115072D01*
X91772Y63990D02*
X115172D01*
X91672Y64090D02*
X115272D01*
X96972Y60190D02*
X109872D01*
X97672Y59890D02*
X109272D01*
X97472Y59990D02*
X109472D01*
X97172Y60090D02*
X109672D01*
X96772Y60290D02*
X110172D01*
X96472Y60390D02*
X110372D01*
X96372Y60490D02*
X110572D01*
X96172Y60590D02*
X110872D01*
X95972Y60690D02*
X110972D01*
X95772Y60790D02*
X111172D01*
X95672Y60890D02*
X111272D01*
X95472Y60990D02*
X111472D01*
X95272Y61090D02*
X111672D01*
X95072Y61190D02*
X111772D01*
X94872Y61290D02*
X111972D01*
X99572Y59290D02*
X107272D01*
X99272Y59390D02*
X107672D01*
X98972Y59490D02*
X108072D01*
X98572Y59590D02*
X108372D01*
X98272Y59690D02*
X108672D01*
X98072Y59790D02*
X108872D01*
X151872Y86590D02*
X179272D01*
X136872Y84990D02*
X143172D01*
X136872Y85090D02*
X143272D01*
X136872Y85190D02*
X143272D01*
X136872Y85290D02*
X143372D01*
X136872Y85390D02*
X143372D01*
X136772Y85490D02*
X143472D01*
X136772Y85590D02*
X143572D01*
X136772Y85690D02*
X143572D01*
X136672Y85790D02*
X143672D01*
X136672Y85890D02*
X143772D01*
X136572Y85990D02*
X143872D01*
X136572Y86090D02*
X143872D01*
X136572Y86190D02*
X143972D01*
X136472Y86290D02*
X144072D01*
X136372Y86390D02*
X144072D01*
X136372Y86490D02*
X143972D01*
X161872Y84190D02*
X182972D01*
X161872Y83590D02*
X183372D01*
X161872Y83690D02*
X183272D01*
X161872Y83790D02*
X183172D01*
X161872Y83890D02*
X183172D01*
X161872Y83990D02*
X183172D01*
X161872Y84090D02*
X183072D01*
X161872Y84290D02*
X182872D01*
X161872Y84390D02*
X182772D01*
X161872Y84490D02*
X182672D01*
X161872Y84590D02*
X182672D01*
X161872Y84690D02*
X182572D01*
X161872Y84790D02*
X182472D01*
X161872Y84890D02*
X182372D01*
X161872Y84990D02*
X182272D01*
X161872Y85090D02*
X182172D01*
X161872Y85190D02*
X182072D01*
X161872Y85290D02*
X181872D01*
X161772Y85390D02*
X181772D01*
X161772Y85490D02*
X181672D01*
X161772Y85590D02*
X181572D01*
X161672Y85690D02*
X181472D01*
X161572Y85790D02*
X181272D01*
X161572Y85890D02*
X181072D01*
X161472Y85990D02*
X180972D01*
X161372Y86090D02*
X180772D01*
X161272Y86190D02*
X180472D01*
X161072Y86290D02*
X180272D01*
X160872Y86390D02*
X179972D01*
X160772Y86490D02*
X179672D01*
X161872Y82090D02*
X172372D01*
X161872Y82190D02*
X172272D01*
X161872Y82290D02*
X172272D01*
X161872Y82390D02*
X172272D01*
X161872Y82490D02*
X172272D01*
X161872Y82590D02*
X172172D01*
X161872Y82690D02*
X172172D01*
X161872Y82790D02*
X172172D01*
X161872Y82890D02*
X172072D01*
X161872Y82990D02*
X172072D01*
X161872Y83090D02*
X172072D01*
X161872Y83190D02*
X171972D01*
X161872Y83290D02*
X171972D01*
X161872Y83390D02*
X171872D01*
X161872Y83490D02*
X171872D01*
X161872Y80190D02*
X172772D01*
X130272Y76190D02*
X141272D01*
X129972Y74590D02*
X141372D01*
X129972Y74690D02*
X141372D01*
X130072Y74790D02*
X141372D01*
X130072Y74890D02*
X141372D01*
X130172Y74990D02*
X141372D01*
X130172Y75090D02*
X141372D01*
X130172Y75190D02*
X141272D01*
X130272Y75290D02*
X141272D01*
X130272Y75390D02*
X141272D01*
X130272Y75490D02*
X141272D01*
X130272Y75590D02*
X141272D01*
X130272Y75690D02*
X141272D01*
X130272Y75790D02*
X141272D01*
X130272Y75890D02*
X141272D01*
X130272Y76090D02*
X141272D01*
X130272Y76290D02*
X141272D01*
X130272Y76390D02*
X141272D01*
X130272Y75990D02*
X141172D01*
X130272Y76490D02*
X141172D01*
X130272Y76590D02*
X141172D01*
X130272Y76690D02*
X141172D01*
X130172Y76790D02*
X141172D01*
X130172Y76890D02*
X141172D01*
X130172Y76990D02*
X141172D01*
X130072Y77090D02*
X141172D01*
X130072Y77190D02*
X141172D01*
X129972Y77290D02*
X141172D01*
X129972Y77390D02*
X141172D01*
X129972Y77490D02*
X141172D01*
X161872Y80290D02*
X172772D01*
X161872Y80390D02*
X172772D01*
X161872Y80490D02*
X172772D01*
X161872Y80590D02*
X172772D01*
X161872Y80690D02*
X172772D01*
X161872Y80790D02*
X172672D01*
X161872Y80890D02*
X172672D01*
X161872Y80990D02*
X172672D01*
X161872Y81090D02*
X172672D01*
X161872Y81190D02*
X172572D01*
X161872Y81290D02*
X172572D01*
X161872Y81390D02*
X172572D01*
X161872Y81490D02*
X172572D01*
X161872Y81590D02*
X172472D01*
X161872Y81690D02*
X172472D01*
X161872Y81790D02*
X172472D01*
X161872Y81890D02*
X172472D01*
X161872Y76190D02*
X182272D01*
X161872Y74690D02*
X183272D01*
X161872Y74790D02*
X183172D01*
X161872Y74890D02*
X183172D01*
X161872Y74990D02*
X183072D01*
X161872Y75090D02*
X182972D01*
X161872Y75190D02*
X182872D01*
X161872Y75290D02*
X182772D01*
X161872Y75390D02*
X182672D01*
X161872Y75490D02*
X182572D01*
X161872Y75590D02*
X182472D01*
X161872Y75690D02*
X182372D01*
X161872Y75790D02*
X182272D01*
X161872Y75890D02*
X182272D01*
X161872Y75990D02*
X182172D01*
X161872Y76090D02*
X182172D01*
X161872Y76290D02*
X182372D01*
X161872Y76390D02*
X182472D01*
X161872Y76490D02*
X182472D01*
X161872Y76590D02*
X182572D01*
X161872Y76690D02*
X182672D01*
X161872Y76790D02*
X182772D01*
X161872Y76890D02*
X182872D01*
X161872Y76990D02*
X182972D01*
X161872Y77090D02*
X183072D01*
X161872Y77190D02*
X183172D01*
X161872Y77290D02*
X183172D01*
X161872Y77390D02*
X183272D01*
X161872Y77490D02*
X183372D01*
X161872Y77590D02*
X183372D01*
X161872Y77690D02*
X183472D01*
X161872Y74090D02*
X172772D01*
X161872Y74190D02*
X172772D01*
X161872Y74290D02*
X172872D01*
X161872Y74390D02*
X172872D01*
X161872Y74490D02*
X172872D01*
X161872Y74590D02*
X172872D01*
X161872Y77790D02*
X173072D01*
X161872Y77890D02*
X173072D01*
X161872Y77990D02*
X173072D01*
X161872Y78090D02*
X173072D01*
X161872Y78190D02*
X173072D01*
X161872Y78290D02*
X173072D01*
X161872Y78390D02*
X173072D01*
X161872Y78490D02*
X173072D01*
X161872Y78590D02*
X173072D01*
X161872Y78690D02*
X173072D01*
X161872Y78790D02*
X173072D01*
X161872Y78890D02*
X173072D01*
X161872Y78990D02*
X172972D01*
X161872Y79090D02*
X172972D01*
X161872Y79190D02*
X172972D01*
X161872Y79290D02*
X172972D01*
X161872Y79390D02*
X172972D01*
X161872Y79490D02*
X172972D01*
X161872Y79590D02*
X172972D01*
X161872Y79690D02*
X172972D01*
X161872Y79790D02*
X172872D01*
X161872Y79890D02*
X172872D01*
X161872Y79990D02*
X172872D01*
X161872Y80090D02*
X172772D01*
X161872Y72190D02*
X172272D01*
X133472Y69990D02*
X139872D01*
X133572Y70090D02*
X139772D01*
X133672Y70190D02*
X139672D01*
X133772Y70290D02*
X139572D01*
X133872Y70390D02*
X139472D01*
X133972Y70490D02*
X139372D01*
X134172Y70590D02*
X139272D01*
X161872Y72290D02*
X172272D01*
X161872Y72390D02*
X172372D01*
X161872Y72490D02*
X172372D01*
X161872Y72590D02*
X172372D01*
X161872Y72690D02*
X172472D01*
X161872Y72790D02*
X172472D01*
X161872Y72890D02*
X172472D01*
X161872Y72990D02*
X172472D01*
X161872Y73090D02*
X172572D01*
X161872Y73190D02*
X172572D01*
X161872Y73290D02*
X172572D01*
X161872Y73390D02*
X172572D01*
X161872Y73490D02*
X172672D01*
X161872Y73590D02*
X172672D01*
X161872Y73690D02*
X172672D01*
X161872Y73790D02*
X172772D01*
X161872Y73890D02*
X172772D01*
X170372Y68190D02*
X183172D01*
X168672Y66090D02*
X180672D01*
X168772Y66190D02*
X180872D01*
X168872Y66290D02*
X180972D01*
X168972Y66390D02*
X181272D01*
X168972Y66490D02*
X181372D01*
X169072Y66590D02*
X181472D01*
X169172Y66690D02*
X181672D01*
X169272Y66790D02*
X181772D01*
X169372Y66890D02*
X181872D01*
X169472Y66990D02*
X181972D01*
X169572Y67090D02*
X182072D01*
X169572Y67190D02*
X182172D01*
X169672Y67290D02*
X182272D01*
X169772Y67390D02*
X182372D01*
X169872Y67490D02*
X182472D01*
X169972Y67590D02*
X182572D01*
X169972Y67690D02*
X182672D01*
X170072Y67790D02*
X182772D01*
X170072Y67890D02*
X182872D01*
X170172Y67990D02*
X182972D01*
X170272Y68090D02*
X183072D01*
X170372Y68290D02*
X183172D01*
X170472Y68390D02*
X183272D01*
X170572Y68490D02*
X183372D01*
X170672Y68590D02*
X183372D01*
X162272Y69290D02*
X171172D01*
X162172Y69390D02*
X171172D01*
X162172Y69490D02*
X171272D01*
X162072Y69590D02*
X171272D01*
X161972Y69690D02*
X171272D01*
X161972Y69790D02*
X171372D01*
X161972Y69890D02*
X171372D01*
X161872Y69990D02*
X171472D01*
X161872Y70090D02*
X171472D01*
X161872Y70190D02*
X171472D01*
X161872Y70290D02*
X171572D01*
X161872Y70390D02*
X171672D01*
X161872Y70490D02*
X171672D01*
X161872Y70590D02*
X171672D01*
X161872Y70690D02*
X171772D01*
X161872Y70790D02*
X171772D01*
X161872Y70890D02*
X171772D01*
X161872Y70990D02*
X171872D01*
X161872Y71090D02*
X171872D01*
X161872Y71190D02*
X171872D01*
X161872Y71290D02*
X171972D01*
X161872Y71390D02*
X171972D01*
X161872Y71490D02*
X172072D01*
X161872Y71590D02*
X172072D01*
X161872Y71690D02*
X172172D01*
X161872Y71790D02*
X172172D01*
X161872Y71890D02*
X172172D01*
X161872Y71990D02*
X172172D01*
X161872Y72090D02*
X172272D01*
X134172Y62990D02*
X139272D01*
X134072Y63090D02*
X139472D01*
X133772Y63190D02*
X139572D01*
X133672Y63290D02*
X139672D01*
X133572Y63390D02*
X139772D01*
X133472Y63490D02*
X139872D01*
X133372Y63590D02*
X139972D01*
X167872Y65490D02*
X179172D01*
X168072Y65590D02*
X179272D01*
X168172Y65690D02*
X179672D01*
X168272Y65790D02*
X179972D01*
X168372Y65890D02*
X180172D01*
X89272Y81990D02*
X104372D01*
X87572Y73990D02*
X104772D01*
X90172Y65990D02*
X98772D01*
X107872Y81990D02*
X117672D01*
X108572Y73990D02*
X119272D01*
X135072Y81990D02*
X137472D01*
X147672Y89990D02*
X166672D01*
X141972Y81990D02*
X153772D01*
X141572Y73990D02*
X152772D01*
X139772Y65990D02*
X145872D01*
X180772Y81990D02*
X183972D01*
X179972Y73990D02*
X183572D01*
X99972Y90390D02*
X106972D01*
X100572Y90490D02*
X106672D01*
X101272Y90590D02*
X106072D01*
X102072Y90690D02*
X104672D01*
X90572Y84190D02*
X105472D01*
X89272Y82090D02*
X104372D01*
X89272Y82190D02*
X104472D01*
X89372Y82290D02*
X104472D01*
X89372Y82390D02*
X104472D01*
X89472Y82490D02*
X104472D01*
X89572Y82590D02*
X104572D01*
X89572Y82690D02*
X104572D01*
X89572Y82790D02*
X104672D01*
X89672Y82890D02*
X104672D01*
X89772Y82990D02*
X104672D01*
X89872Y83090D02*
X104772D01*
X89872Y83190D02*
X104772D01*
X89972Y83290D02*
X104872D01*
X90072Y83390D02*
X104972D01*
X90072Y83490D02*
X104972D01*
X90172Y83590D02*
X105072D01*
X90272Y83690D02*
X105172D01*
X90272Y83790D02*
X105172D01*
X90372Y83890D02*
X105272D01*
X90372Y83990D02*
X105272D01*
X90472Y84090D02*
X105372D01*
X90672Y84290D02*
X105572D01*
X90672Y84390D02*
X105672D01*
X90772Y84490D02*
X105772D01*
X90872Y84590D02*
X105872D01*
X90972Y84690D02*
X105972D01*
X91072Y84790D02*
X106072D01*
X91172Y84890D02*
X106172D01*
X91272Y84990D02*
X106272D01*
X91272Y85090D02*
X106272D01*
X91372Y85190D02*
X106372D01*
X91372Y85290D02*
X106472D01*
X91472Y85390D02*
X106572D01*
X91572Y85490D02*
X106672D01*
X91672Y85590D02*
X106972D01*
X91772Y85690D02*
X107072D01*
X88472Y80190D02*
X104272D01*
X88472Y80290D02*
X104172D01*
X88572Y80390D02*
X104272D01*
X88572Y80490D02*
X104172D01*
X88572Y80590D02*
X104172D01*
X88672Y80690D02*
X104272D01*
X88672Y80790D02*
X104272D01*
X88672Y80890D02*
X104272D01*
X88772Y80990D02*
X104272D01*
X88772Y81090D02*
X104272D01*
X88872Y81190D02*
X104272D01*
X88872Y81290D02*
X104272D01*
X88872Y81390D02*
X104272D01*
X88972Y81490D02*
X104272D01*
X88972Y81590D02*
X104272D01*
X89072Y81690D02*
X104372D01*
X89172Y81790D02*
X104372D01*
X89172Y81890D02*
X104372D01*
X87572Y76190D02*
X106172D01*
X87572Y74090D02*
X104772D01*
X87472Y74190D02*
X104872D01*
X87472Y74290D02*
X104972D01*
X87472Y74390D02*
X105072D01*
X87472Y74490D02*
X105072D01*
X87472Y74590D02*
X105172D01*
X87472Y74690D02*
X105272D01*
X87472Y74790D02*
X105372D01*
X87472Y74890D02*
X105372D01*
X87472Y74990D02*
X105472D01*
X87472Y75090D02*
X105572D01*
X87572Y75190D02*
X105672D01*
X87572Y75290D02*
X105672D01*
X87572Y75390D02*
X105772D01*
X87572Y75490D02*
X105872D01*
X87572Y75590D02*
X105972D01*
X87572Y75690D02*
X105972D01*
X87572Y75790D02*
X106072D01*
X87572Y75890D02*
X106172D01*
X87572Y75990D02*
X106272D01*
X87572Y76090D02*
X106272D01*
X87572Y76290D02*
X106072D01*
X87572Y76390D02*
X105872D01*
X87572Y76490D02*
X105772D01*
X87572Y76590D02*
X105672D01*
X87572Y76690D02*
X105572D01*
X87672Y76790D02*
X105572D01*
X87672Y76890D02*
X105472D01*
X87672Y76990D02*
X105372D01*
X87672Y77090D02*
X105272D01*
X87672Y77190D02*
X105272D01*
X87672Y77290D02*
X105172D01*
X87772Y77390D02*
X105172D01*
X87772Y77490D02*
X105072D01*
X87772Y77590D02*
X105072D01*
X87772Y77690D02*
X104972D01*
X87772Y77790D02*
X104872D01*
X87772Y77890D02*
X104872D01*
X87772Y77990D02*
X104872D01*
X87872Y78090D02*
X104772D01*
X87872Y78190D02*
X104772D01*
X87872Y78290D02*
X104672D01*
X87872Y78390D02*
X104672D01*
X87972Y78490D02*
X104672D01*
X87972Y78590D02*
X104572D01*
X87972Y78690D02*
X104572D01*
X87972Y78790D02*
X104472D01*
X88072Y78890D02*
X104472D01*
X88072Y78990D02*
X104472D01*
X88072Y79090D02*
X104472D01*
X88172Y79190D02*
X104372D01*
X88172Y79290D02*
X104372D01*
X88172Y79390D02*
X104372D01*
X88272Y79490D02*
X104372D01*
X88272Y79590D02*
X104272D01*
X88272Y79690D02*
X104272D01*
X88272Y79790D02*
X104272D01*
X88272Y79890D02*
X104272D01*
X88372Y79990D02*
X104272D01*
X88372Y80090D02*
X104272D01*
X87672Y72190D02*
X103372D01*
X87672Y72290D02*
X103472D01*
X87672Y72390D02*
X103572D01*
X87672Y72490D02*
X103572D01*
X87672Y72590D02*
X103672D01*
X87672Y72690D02*
X103772D01*
X87572Y72790D02*
X103872D01*
X87572Y72890D02*
X103872D01*
X87572Y72990D02*
X103972D01*
X87572Y73090D02*
X104072D01*
X87572Y73190D02*
X104172D01*
X87572Y73290D02*
X104172D01*
X87572Y73390D02*
X104272D01*
X87572Y73490D02*
X104372D01*
X87572Y73590D02*
X104472D01*
X87572Y73690D02*
X104472D01*
X87572Y73790D02*
X104572D01*
X87572Y73890D02*
X104672D01*
X88972Y68190D02*
X100372D01*
X90072Y66090D02*
X98872D01*
X89972Y66190D02*
X98872D01*
X89872Y66290D02*
X98972D01*
X89872Y66390D02*
X99072D01*
X89872Y66490D02*
X99172D01*
X89772Y66590D02*
X99172D01*
X89672Y66690D02*
X99272D01*
X89672Y66790D02*
X99372D01*
X89572Y66890D02*
X99472D01*
X89572Y66990D02*
X99472D01*
X89472Y67090D02*
X99572D01*
X89372Y67190D02*
X99672D01*
X89372Y67290D02*
X99772D01*
X89372Y67390D02*
X99772D01*
X89272Y67490D02*
X99872D01*
X89172Y67590D02*
X99972D01*
X89172Y67690D02*
X100072D01*
X89072Y67790D02*
X100072D01*
X88972Y67890D02*
X100172D01*
X88972Y67990D02*
X100272D01*
X88972Y68090D02*
X100372D01*
X88872Y68290D02*
X100472D01*
X88872Y68390D02*
X100572D01*
X88772Y68490D02*
X100672D01*
X88772Y68590D02*
X100672D01*
X88672Y68690D02*
X100772D01*
X88672Y68790D02*
X100872D01*
X88672Y68890D02*
X100972D01*
X88572Y68990D02*
X100972D01*
X88572Y69090D02*
X101072D01*
X88572Y69190D02*
X101172D01*
X88472Y69290D02*
X101272D01*
X88472Y69390D02*
X101272D01*
X88472Y69490D02*
X101372D01*
X88372Y69590D02*
X101472D01*
X88372Y69690D02*
X101572D01*
X88272Y69790D02*
X101572D01*
X88272Y69890D02*
X101672D01*
X88272Y69990D02*
X101772D01*
X88172Y70090D02*
X101872D01*
X88172Y70190D02*
X101872D01*
X88172Y70290D02*
X101972D01*
X88172Y70390D02*
X102072D01*
X88072Y70490D02*
X102072D01*
X88072Y70590D02*
X102172D01*
X88072Y70690D02*
X102272D01*
X88072Y70790D02*
X102372D01*
X87972Y70890D02*
X102372D01*
X87972Y70990D02*
X102472D01*
X87972Y71090D02*
X102572D01*
X87972Y71190D02*
X102672D01*
X87872Y71290D02*
X102672D01*
X87872Y71390D02*
X102772D01*
X87872Y71490D02*
X102872D01*
X87872Y71590D02*
X102972D01*
X87772Y71690D02*
X102972D01*
X87772Y71790D02*
X103072D01*
X87772Y71890D02*
X103172D01*
X87772Y71990D02*
X103272D01*
X87772Y72090D02*
X103272D01*
X90572Y65490D02*
X98372D01*
X90472Y65590D02*
X98472D01*
X90372Y65690D02*
X98572D01*
X90272Y65790D02*
X98572D01*
X90172Y65890D02*
X98672D01*
X100072Y59190D02*
X106772D01*
X101272Y58990D02*
X105672D01*
X100472Y59090D02*
X106472D01*
X101972Y58890D02*
X104872D01*
X116472Y84190D02*
X130772D01*
X116872Y83590D02*
X130872D01*
X116772Y83690D02*
X130872D01*
X116772Y83790D02*
X130772D01*
X116672Y83890D02*
X130772D01*
X116572Y83990D02*
X130772D01*
X116572Y84090D02*
X130772D01*
X116372Y84290D02*
X130672D01*
X116272Y84390D02*
X130672D01*
X116172Y84490D02*
X130672D01*
X116172Y84590D02*
X130672D01*
X116072Y84690D02*
X130672D01*
X115972Y84790D02*
X130672D01*
X115872Y84890D02*
X130672D01*
X115772Y84990D02*
X130672D01*
X115772Y85090D02*
X130672D01*
X115672Y85190D02*
X130672D01*
X115572Y85290D02*
X130772D01*
X115472Y85390D02*
X130772D01*
X115472Y85490D02*
X130772D01*
X115372Y85590D02*
X130772D01*
X115272Y85690D02*
X130772D01*
X115172Y85790D02*
X130872D01*
X115072Y85890D02*
X130872D01*
X114972Y85990D02*
X130872D01*
X114872Y86090D02*
X130972D01*
X114772Y86190D02*
X131072D01*
X114672Y86290D02*
X131072D01*
X114572Y86390D02*
X131072D01*
X114372Y86490D02*
X131172D01*
X130672Y88190D02*
X136872D01*
X107872Y82090D02*
X117572D01*
X107972Y82190D02*
X117572D01*
X107972Y82290D02*
X117572D01*
X108072Y82390D02*
X117472D01*
X108172Y82490D02*
X117472D01*
X108272Y82590D02*
X117372D01*
X108372Y82690D02*
X117372D01*
X108472Y82790D02*
X117272D01*
X108672Y82890D02*
X117272D01*
X108772Y82990D02*
X117172D01*
X108872Y83090D02*
X117072D01*
X109072Y83190D02*
X117072D01*
X109272Y83290D02*
X116972D01*
X109572Y83390D02*
X116872D01*
X109972Y83490D02*
X116772D01*
X130772Y88290D02*
X136772D01*
X130472Y87990D02*
X137072D01*
X130572Y88090D02*
X136972D01*
X130872Y88390D02*
X136672D01*
X130972Y88490D02*
X136572D01*
X131072Y88590D02*
X136472D01*
X131272Y88690D02*
X136272D01*
X131472Y88790D02*
X136072D01*
X131672Y88890D02*
X135872D01*
X131872Y88990D02*
X135672D01*
X132072Y89090D02*
X135372D01*
X132372Y89190D02*
X135172D01*
X135072Y87590D02*
X137472D01*
X134872Y87690D02*
X137372D01*
X134572Y87790D02*
X137272D01*
X133972Y87890D02*
X137172D01*
X107272Y80190D02*
X118372D01*
X107272Y80290D02*
X118372D01*
X107272Y80390D02*
X118272D01*
X107272Y80490D02*
X118172D01*
X107272Y80590D02*
X118172D01*
X107272Y80690D02*
X118172D01*
X107272Y80790D02*
X118172D01*
X107272Y80890D02*
X118172D01*
X107272Y80990D02*
X118172D01*
X107372Y81090D02*
X118172D01*
X107372Y81190D02*
X118072D01*
X107372Y81290D02*
X118072D01*
X107472Y81390D02*
X117972D01*
X107472Y81490D02*
X117972D01*
X107572Y81590D02*
X117872D01*
X107572Y81690D02*
X117872D01*
X107672Y81790D02*
X117772D01*
X107772Y81890D02*
X117772D01*
X119072Y76190D02*
X124172D01*
X108772Y74090D02*
X119272D01*
X108972Y74190D02*
X119272D01*
X109172Y74290D02*
X119272D01*
X109272Y77590D02*
X118972D01*
X109072Y77690D02*
X118972D01*
X108872Y77790D02*
X118972D01*
X108772Y77890D02*
X118972D01*
X108672Y77990D02*
X118972D01*
X108572Y78090D02*
X118972D01*
X108372Y78190D02*
X118972D01*
X108272Y78290D02*
X118872D01*
X108172Y78390D02*
X118872D01*
X108172Y78490D02*
X118872D01*
X108072Y78590D02*
X118872D01*
X108072Y78690D02*
X118772D01*
X107972Y78790D02*
X118772D01*
X107872Y78890D02*
X118772D01*
X107772Y78990D02*
X118772D01*
X107772Y79090D02*
X118672D01*
X107672Y79190D02*
X118672D01*
X107572Y79290D02*
X118672D01*
X107572Y79390D02*
X118672D01*
X107572Y79490D02*
X118572D01*
X107472Y79590D02*
X118572D01*
X107472Y79690D02*
X118472D01*
X107372Y79790D02*
X118472D01*
X107372Y79890D02*
X118472D01*
X107272Y79990D02*
X118472D01*
X107272Y80090D02*
X118372D01*
X119072Y74490D02*
X124472D01*
X119072Y74590D02*
X124472D01*
X119072Y74690D02*
X124372D01*
X119072Y74790D02*
X124372D01*
X119072Y74890D02*
X124372D01*
X119072Y74990D02*
X124272D01*
X119072Y75090D02*
X124272D01*
X119072Y75190D02*
X124272D01*
X119072Y75290D02*
X124172D01*
X119072Y75390D02*
X124172D01*
X119072Y75490D02*
X124172D01*
X119072Y75590D02*
X124172D01*
X119072Y75690D02*
X124172D01*
X119072Y75790D02*
X124172D01*
X119072Y75890D02*
X124172D01*
X119072Y75990D02*
X124172D01*
X119072Y76090D02*
X124172D01*
X119072Y76290D02*
X124172D01*
X119072Y76390D02*
X124172D01*
X119072Y76490D02*
X124172D01*
X119072Y76590D02*
X124172D01*
X119072Y76690D02*
X124172D01*
X119072Y76790D02*
X124272D01*
X119072Y76890D02*
X124272D01*
X119072Y76990D02*
X124272D01*
X119072Y77090D02*
X124372D01*
X119072Y77190D02*
X124372D01*
X119072Y77290D02*
X124472D01*
X119072Y77390D02*
X124472D01*
X109472Y77490D02*
X118972D01*
X130772Y81290D02*
X136772D01*
X130672Y81390D02*
X136872D01*
X130572Y81490D02*
X136972D01*
X130472Y81590D02*
X137072D01*
X130372Y81690D02*
X137172D01*
X125072Y80190D02*
X129272D01*
X119072Y74390D02*
X122672D01*
X119072Y77490D02*
X120672D01*
X125372Y80290D02*
X129072D01*
X125572Y80390D02*
X128772D01*
X125972Y80490D02*
X128472D01*
X126372Y80590D02*
X128172D01*
X126972Y80690D02*
X127372D01*
X123772Y79190D02*
X130572D01*
X123872Y79290D02*
X130472D01*
X123972Y79390D02*
X130372D01*
X124072Y79490D02*
X130272D01*
X124172Y79590D02*
X130172D01*
X124272Y79690D02*
X130072D01*
X124472Y79790D02*
X129972D01*
X124672Y79890D02*
X129772D01*
X124872Y79990D02*
X129572D01*
X124972Y80090D02*
X129372D01*
X134472Y81790D02*
X137272D01*
X134772Y81890D02*
X137372D01*
X132172Y80490D02*
X135372D01*
X131872Y80590D02*
X135572D01*
X131672Y80690D02*
X135872D01*
X131472Y80790D02*
X136072D01*
X131372Y80890D02*
X136172D01*
X131172Y80990D02*
X136372D01*
X130972Y81090D02*
X136572D01*
X130872Y81190D02*
X136672D01*
X107272Y72290D02*
X119072D01*
X107272Y72390D02*
X119172D01*
X107372Y72490D02*
X119172D01*
X107472Y72590D02*
X119172D01*
X107472Y72690D02*
X119172D01*
X107572Y72790D02*
X119172D01*
X107572Y72890D02*
X119172D01*
X107672Y72990D02*
X119172D01*
X107772Y73090D02*
X119172D01*
X107772Y73190D02*
X119172D01*
X107872Y73290D02*
X119172D01*
X107872Y73390D02*
X119272D01*
X107972Y73490D02*
X119272D01*
X108072Y73590D02*
X119272D01*
X108172Y73690D02*
X119272D01*
X108272Y73790D02*
X119272D01*
X108372Y73890D02*
X119272D01*
X134272Y70690D02*
X139072D01*
X134372Y70790D02*
X138972D01*
X124672Y72190D02*
X129872D01*
X124472Y72290D02*
X129972D01*
X124372Y72390D02*
X130072D01*
X124272Y72490D02*
X130272D01*
X124172Y72590D02*
X130372D01*
X124072Y72690D02*
X130472D01*
X123972Y72790D02*
X130572D01*
X123872Y72890D02*
X130672D01*
X125072Y71890D02*
X129372D01*
X124972Y71990D02*
X129472D01*
X124772Y72090D02*
X129672D01*
X127072Y71390D02*
X127472D01*
X126272Y71490D02*
X128172D01*
X125872Y71590D02*
X128572D01*
X125572Y71690D02*
X128872D01*
X125372Y71790D02*
X129172D01*
X134672Y70890D02*
X138672D01*
X134872Y70990D02*
X138472D01*
X135172Y71090D02*
X138272D01*
X133072Y69590D02*
X135372D01*
X133172Y69690D02*
X135472D01*
X133272Y69790D02*
X135672D01*
X133372Y69890D02*
X136072D01*
X134472Y62790D02*
X138872D01*
X134372Y62890D02*
X139072D01*
X135172Y62490D02*
X138272D01*
X134972Y62590D02*
X138472D01*
X134672Y62690D02*
X138672D01*
X133272Y63690D02*
X136472D01*
X133172Y63790D02*
X135772D01*
X133072Y63890D02*
X135572D01*
X133072Y63990D02*
X135272D01*
X133072Y64090D02*
X135172D01*
X151772Y92190D02*
X162572D01*
X147772Y90090D02*
X166572D01*
X147872Y90190D02*
X166472D01*
X147972Y90290D02*
X166372D01*
X148272Y90390D02*
X166172D01*
X148372Y90490D02*
X165972D01*
X148472Y90590D02*
X165872D01*
X148672Y90690D02*
X165772D01*
X148772Y90790D02*
X165572D01*
X148972Y90890D02*
X165372D01*
X149172Y90990D02*
X165172D01*
X149372Y91090D02*
X164972D01*
X149472Y91190D02*
X164872D01*
X149672Y91290D02*
X164672D01*
X149772Y91390D02*
X164472D01*
X150072Y91490D02*
X164272D01*
X150272Y91590D02*
X164172D01*
X150472Y91690D02*
X163872D01*
X150772Y91790D02*
X163672D01*
X150972Y91890D02*
X163472D01*
X151172Y91990D02*
X163172D01*
X151372Y92090D02*
X162972D01*
X151972Y92290D02*
X162372D01*
X152272Y92390D02*
X162072D01*
X152572Y92490D02*
X161672D01*
X152972Y92590D02*
X161372D01*
X153372Y92690D02*
X161072D01*
X153872Y92790D02*
X160572D01*
X154172Y92890D02*
X160172D01*
X154972Y92990D02*
X159372D01*
X145672Y88190D02*
X168872D01*
X145772Y88290D02*
X168772D01*
X145772Y88390D02*
X168572D01*
X145972Y88490D02*
X168472D01*
X146072Y88590D02*
X168372D01*
X146172Y88690D02*
X168272D01*
X146172Y88790D02*
X168172D01*
X146372Y88890D02*
X168072D01*
X146472Y88990D02*
X167972D01*
X146572Y89090D02*
X167872D01*
X146672Y89190D02*
X167772D01*
X146872Y89290D02*
X167572D01*
X146972Y89390D02*
X167472D01*
X147072Y89490D02*
X167372D01*
X147172Y89590D02*
X167172D01*
X147272Y89690D02*
X167072D01*
X147372Y89790D02*
X166972D01*
X147572Y89890D02*
X166872D01*
X152772Y86390D02*
X159172D01*
X152472Y86490D02*
X159472D01*
X144372Y86690D02*
X169872D01*
X144372Y86790D02*
X169772D01*
X144472Y86890D02*
X169772D01*
X144572Y86990D02*
X169672D01*
X144672Y87090D02*
X169572D01*
X144772Y87190D02*
X169572D01*
X144872Y87290D02*
X169472D01*
X144972Y87390D02*
X169372D01*
X145072Y87490D02*
X169272D01*
X145072Y87590D02*
X169272D01*
X145172Y87690D02*
X169172D01*
X145272Y87790D02*
X169172D01*
X145372Y87890D02*
X169072D01*
X145472Y87990D02*
X168972D01*
X145572Y88090D02*
X168872D01*
X141972Y82090D02*
X153672D01*
X141972Y82190D02*
X153672D01*
X142072Y82290D02*
X153572D01*
X142072Y82390D02*
X153572D01*
X142172Y82490D02*
X153472D01*
X142172Y82590D02*
X153372D01*
X142172Y82690D02*
X153272D01*
X142172Y82790D02*
X153172D01*
X142272Y82890D02*
X152972D01*
X142272Y82990D02*
X152772D01*
X142372Y83090D02*
X152672D01*
X142372Y83190D02*
X152472D01*
X142372Y83290D02*
X152072D01*
X142472Y83390D02*
X151572D01*
X144272Y86590D02*
X151572D01*
X141572Y80190D02*
X154172D01*
X141572Y80290D02*
X154272D01*
X141572Y80390D02*
X154272D01*
X141572Y80490D02*
X154272D01*
X141572Y80590D02*
X154272D01*
X141572Y80690D02*
X154272D01*
X141572Y80790D02*
X154272D01*
X141672Y80890D02*
X154272D01*
X141672Y80990D02*
X154172D01*
X141672Y81090D02*
X154172D01*
X141772Y81190D02*
X154172D01*
X141772Y81290D02*
X154072D01*
X141772Y81390D02*
X154072D01*
X141872Y81490D02*
X154072D01*
X141872Y81590D02*
X153972D01*
X141872Y81690D02*
X153972D01*
X141872Y81790D02*
X153872D01*
X141872Y81890D02*
X153872D01*
X141272Y77690D02*
X151972D01*
X141272Y77790D02*
X152172D01*
X141272Y77890D02*
X152472D01*
X141272Y77990D02*
X152672D01*
X141272Y78090D02*
X152772D01*
X141272Y78190D02*
X152872D01*
X141272Y78290D02*
X153072D01*
X141272Y78390D02*
X153272D01*
X141272Y78490D02*
X153372D01*
X141272Y78590D02*
X153472D01*
X141572Y74090D02*
X152672D01*
X141572Y74190D02*
X152472D01*
X141572Y74290D02*
X152172D01*
X141572Y74390D02*
X151772D01*
X141572Y74490D02*
X151572D01*
X141372Y78690D02*
X153572D01*
X141372Y78790D02*
X153672D01*
X141372Y78890D02*
X153672D01*
X141372Y78990D02*
X153672D01*
X141372Y79090D02*
X153772D01*
X141372Y79190D02*
X153872D01*
X141372Y79290D02*
X153872D01*
X141372Y79390D02*
X153972D01*
X141372Y79490D02*
X153972D01*
X141372Y79590D02*
X153972D01*
X141472Y79690D02*
X154072D01*
X141472Y79790D02*
X154072D01*
X141472Y79890D02*
X154172D01*
X141472Y79990D02*
X154172D01*
X141472Y80090D02*
X154172D01*
X142072Y72190D02*
X154172D01*
X142072Y72290D02*
X154072D01*
X142072Y72390D02*
X154072D01*
X141972Y72490D02*
X154072D01*
X141972Y72590D02*
X153972D01*
X141872Y72690D02*
X153972D01*
X141872Y72790D02*
X153972D01*
X141872Y72890D02*
X153872D01*
X141872Y72990D02*
X153772D01*
X141772Y73090D02*
X153672D01*
X141772Y73190D02*
X153672D01*
X141772Y73290D02*
X153572D01*
X141772Y73390D02*
X153472D01*
X141672Y73490D02*
X153372D01*
X141672Y73590D02*
X153272D01*
X141672Y73690D02*
X153172D01*
X141672Y73790D02*
X153072D01*
X141572Y73890D02*
X152972D01*
X143872Y68590D02*
X151472D01*
X143772Y68690D02*
X151972D01*
X143672Y68790D02*
X152272D01*
X143572Y68890D02*
X152472D01*
X143572Y68990D02*
X152572D01*
X143472Y69090D02*
X152672D01*
X143372Y69190D02*
X152872D01*
X143372Y69290D02*
X153072D01*
X143272Y69390D02*
X153172D01*
X143272Y69490D02*
X153272D01*
X143172Y69590D02*
X153372D01*
X143172Y69690D02*
X153472D01*
X143072Y69790D02*
X153572D01*
X143072Y69890D02*
X153572D01*
X143072Y69990D02*
X153672D01*
X142972Y70090D02*
X153672D01*
X142872Y70190D02*
X153772D01*
X142872Y70290D02*
X153872D01*
X142772Y70390D02*
X153872D01*
X142772Y70490D02*
X153972D01*
X142672Y70590D02*
X154072D01*
X142672Y70690D02*
X154072D01*
X142572Y70790D02*
X154072D01*
X142572Y70890D02*
X154172D01*
X142472Y70990D02*
X154172D01*
X142472Y71090D02*
X154172D01*
X142472Y71190D02*
X154172D01*
X142472Y71290D02*
X154172D01*
X142372Y71390D02*
X154272D01*
X142372Y71490D02*
X154272D01*
X142272Y71590D02*
X154272D01*
X142272Y71690D02*
X154272D01*
X142172Y71790D02*
X154272D01*
X142172Y71890D02*
X154272D01*
X142172Y71990D02*
X154172D01*
X142072Y72090D02*
X154172D01*
X163272Y68690D02*
X170772D01*
X162972Y68790D02*
X170872D01*
X162772Y68890D02*
X170972D01*
X162572Y68990D02*
X170972D01*
X162472Y69090D02*
X171072D01*
X162372Y69190D02*
X171072D01*
X139572Y68190D02*
X144072D01*
X139772Y66090D02*
X145772D01*
X139772Y66190D02*
X145672D01*
X139772Y66290D02*
X145572D01*
X139772Y66390D02*
X145472D01*
X139872Y66490D02*
X145372D01*
X139872Y66590D02*
X145272D01*
X139872Y66690D02*
X145172D01*
X139872Y66790D02*
X145172D01*
X139872Y66890D02*
X145072D01*
X139872Y66990D02*
X144972D01*
X139872Y67090D02*
X144872D01*
X139772Y67190D02*
X144772D01*
X139772Y67290D02*
X144672D01*
X139772Y67390D02*
X144572D01*
X139772Y67490D02*
X144572D01*
X139772Y67590D02*
X144472D01*
X139772Y67690D02*
X144372D01*
X139672Y67790D02*
X144272D01*
X139672Y67890D02*
X144172D01*
X139572Y67990D02*
X144172D01*
X139572Y68090D02*
X144072D01*
X139472Y68290D02*
X143972D01*
X139372Y68390D02*
X143872D01*
X139272Y68490D02*
X143772D01*
X147972Y64190D02*
X166272D01*
X147872Y64290D02*
X166372D01*
X147672Y64390D02*
X166472D01*
X147572Y64490D02*
X166672D01*
X147472Y64590D02*
X166872D01*
X147372Y64690D02*
X166972D01*
X147172Y64790D02*
X167072D01*
X146972Y64890D02*
X167272D01*
X146872Y64990D02*
X167372D01*
X146772Y65090D02*
X167472D01*
X146672Y65190D02*
X167572D01*
X146572Y65290D02*
X167572D01*
X146572Y65390D02*
X167672D01*
X152172Y65490D02*
X159272D01*
X152972Y61790D02*
X161372D01*
X152672Y61890D02*
X161672D01*
X152372Y61990D02*
X161872D01*
X152072Y62090D02*
X162072D01*
X151772Y62190D02*
X162472D01*
X151572Y62290D02*
X162672D01*
X151372Y62390D02*
X162972D01*
X151072Y62490D02*
X163172D01*
X150672Y62590D02*
X163472D01*
X150572Y62690D02*
X163872D01*
X150372Y62790D02*
X163872D01*
X150172Y62890D02*
X164172D01*
X149972Y62990D02*
X164272D01*
X149772Y63090D02*
X164472D01*
X149572Y63190D02*
X164672D01*
X149272Y63290D02*
X164972D01*
X149172Y63390D02*
X165072D01*
X148972Y63490D02*
X165372D01*
X148872Y63590D02*
X165472D01*
X148772Y63690D02*
X165472D01*
X148572Y63790D02*
X165772D01*
X148472Y63890D02*
X165872D01*
X148272Y63990D02*
X165972D01*
X148172Y64090D02*
X166172D01*
X154472Y61490D02*
X159872D01*
X153872Y61590D02*
X160472D01*
X153572Y61690D02*
X160872D01*
X139672Y65590D02*
X146172D01*
X139672Y65690D02*
X146172D01*
X139672Y65790D02*
X146072D01*
X139772Y65890D02*
X145972D01*
X155172Y61390D02*
X159272D01*
X178672Y83490D02*
X183472D01*
X180772Y82090D02*
X183972D01*
X180672Y82190D02*
X183972D01*
X180572Y82290D02*
X183972D01*
X180572Y82390D02*
X183872D01*
X180472Y82490D02*
X183872D01*
X180372Y82590D02*
X183772D01*
X180272Y82690D02*
X183772D01*
X180172Y82790D02*
X183772D01*
X180072Y82890D02*
X183672D01*
X179872Y82990D02*
X183672D01*
X179772Y83090D02*
X183672D01*
X179572Y83190D02*
X183572D01*
X179472Y83290D02*
X183572D01*
X179172Y83390D02*
X183472D01*
X178672Y74590D02*
X183272D01*
X181072Y80190D02*
X184272D01*
X181072Y80290D02*
X184272D01*
X181072Y80390D02*
X184272D01*
X181072Y80490D02*
X184272D01*
X181072Y80590D02*
X184272D01*
X181172Y80690D02*
X184272D01*
X181172Y80790D02*
X184272D01*
X181172Y80890D02*
X184272D01*
X181172Y80990D02*
X184172D01*
X181172Y81090D02*
X184172D01*
X181072Y81190D02*
X184172D01*
X181072Y81290D02*
X184172D01*
X181072Y81390D02*
X184172D01*
X180972Y81490D02*
X184172D01*
X180972Y81590D02*
X184072D01*
X180972Y81690D02*
X184072D01*
X180872Y81790D02*
X184072D01*
X180872Y81890D02*
X184072D01*
X179872Y74090D02*
X183572D01*
X179672Y74190D02*
X183572D01*
X179572Y74290D02*
X183472D01*
X179372Y74390D02*
X183372D01*
X178972Y74490D02*
X183372D01*
X178872Y77790D02*
X183472D01*
X179072Y77890D02*
X183572D01*
X179172Y77990D02*
X183572D01*
X179372Y78090D02*
X183672D01*
X179572Y78190D02*
X183672D01*
X179672Y78290D02*
X183672D01*
X179872Y78390D02*
X183772D01*
X179972Y78490D02*
X183772D01*
X180072Y78590D02*
X183872D01*
X180272Y78690D02*
X183872D01*
X180372Y78790D02*
X183872D01*
X180472Y78890D02*
X183972D01*
X180572Y78990D02*
X183972D01*
X180672Y79090D02*
X184072D01*
X180672Y79190D02*
X184072D01*
X180772Y79290D02*
X184072D01*
X180772Y79390D02*
X184072D01*
X180872Y79490D02*
X184172D01*
X180872Y79590D02*
X184172D01*
X180972Y79690D02*
X184172D01*
X180972Y79790D02*
X184172D01*
X180972Y79890D02*
X184172D01*
X181072Y79990D02*
X184272D01*
X181072Y80090D02*
X184272D01*
X178772Y68690D02*
X183472D01*
X181072Y72190D02*
X184172D01*
X181072Y72290D02*
X184072D01*
X181072Y72390D02*
X184072D01*
X181072Y72490D02*
X184072D01*
X180972Y72590D02*
X184072D01*
X180972Y72690D02*
X183972D01*
X180972Y72790D02*
X184072D01*
X180872Y72890D02*
X183972D01*
X180772Y72990D02*
X183972D01*
X180772Y73090D02*
X183972D01*
X180672Y73190D02*
X183872D01*
X180672Y73290D02*
X183872D01*
X180572Y73390D02*
X183872D01*
X180472Y73490D02*
X183772D01*
X180372Y73590D02*
X183772D01*
X180272Y73690D02*
X183672D01*
X180172Y73790D02*
X183672D01*
X180072Y73890D02*
X183672D01*
X179172Y68790D02*
X183472D01*
X179272Y68890D02*
X183572D01*
X179472Y68990D02*
X183672D01*
X179572Y69090D02*
X183672D01*
X179772Y69190D02*
X183772D01*
X179872Y69290D02*
X183772D01*
X179972Y69390D02*
X183772D01*
X180172Y69490D02*
X183872D01*
X180272Y69590D02*
X183872D01*
X180372Y69690D02*
X183872D01*
X180472Y69790D02*
X183872D01*
X180572Y69890D02*
X183972D01*
X180572Y69990D02*
X183972D01*
X180672Y70090D02*
X183972D01*
X180672Y70190D02*
X184072D01*
X180772Y70290D02*
X184072D01*
X180872Y70390D02*
X184072D01*
X180872Y70490D02*
X184072D01*
X180972Y70590D02*
X184072D01*
X181072Y70690D02*
X184072D01*
X181072Y70790D02*
X184072D01*
X181072Y70890D02*
X184172D01*
X181172Y70990D02*
X184172D01*
X181172Y71090D02*
X184172D01*
X181172Y71190D02*
X184172D01*
X181172Y71290D02*
X184172D01*
X181172Y71390D02*
X184172D01*
X181172Y71490D02*
X184172D01*
X181172Y71590D02*
X184172D01*
X181172Y71690D02*
X184172D01*
X181172Y71790D02*
X184172D01*
X181172Y71890D02*
X184172D01*
X181172Y71990D02*
X184172D01*
X181172Y72090D02*
X184172D01*
X123072Y73990D02*
X124872D01*
X130072Y81990D02*
X132472D01*
X129572Y73990D02*
X131372D01*
X157172Y81990D02*
X158072D01*
X156672Y73990D02*
X158072D01*
X153872Y65990D02*
X158472D01*
X105272Y90690D02*
X105372D01*
X105072D02*
X105172D01*
X104872D02*
X104972D01*
X120972Y77490D02*
X121372D01*
X121672D02*
X122072D01*
X123072Y74090D02*
X124772D01*
X122972Y74190D02*
X124772D01*
X122972Y74290D02*
X124672D01*
X122872Y74390D02*
X124572D01*
X122872Y77490D02*
X124472D01*
X122872Y77590D02*
X124572D01*
X122972Y77690D02*
X124672D01*
X122972Y77790D02*
X124672D01*
X122972Y77890D02*
X124772D01*
X123072Y77990D02*
X124872D01*
X123072Y78090D02*
X124972D01*
X123172Y78190D02*
X125072D01*
X123172Y78290D02*
X125172D01*
X123272Y78390D02*
X125272D01*
X123272Y78490D02*
X125372D01*
X123372Y78590D02*
X125472D01*
X123472Y78690D02*
X125572D01*
X123472Y78790D02*
X125772D01*
X123472Y78890D02*
X126072D01*
X123572Y78990D02*
X126272D01*
X123672Y79090D02*
X126672D01*
X123772Y72990D02*
X126472D01*
X123672Y73090D02*
X126172D01*
X123572Y73190D02*
X125972D01*
X123472Y73290D02*
X125772D01*
X123372Y73390D02*
X125572D01*
X123272Y73490D02*
X125372D01*
X123272Y73590D02*
X125272D01*
X123172Y73690D02*
X125172D01*
X123172Y73790D02*
X125072D01*
X123072Y73890D02*
X124972D01*
X130072Y82090D02*
X132372D01*
X129972Y82190D02*
X132172D01*
X129872Y82290D02*
X131972D01*
X129772Y82390D02*
X131872D01*
X129772Y82490D02*
X131772D01*
X129672Y82590D02*
X131672D01*
X129672Y82690D02*
X131572D01*
X129672Y82790D02*
X131472D01*
X129572Y82890D02*
X131372D01*
X129572Y82990D02*
X131272D01*
X129372Y83090D02*
X131272D01*
X129372Y83190D02*
X131172D01*
X129372Y83290D02*
X131072D01*
X129372Y83390D02*
X131072D01*
X129372Y83490D02*
X130972D01*
X129472Y86590D02*
X131272D01*
X129572Y86690D02*
X131372D01*
X129572Y86790D02*
X131372D01*
X129672Y86890D02*
X131472D01*
X129772Y86990D02*
X131572D01*
X129772Y87090D02*
X131672D01*
X129772Y87190D02*
X131772D01*
X129872Y87290D02*
X131972D01*
X129872Y87390D02*
X132072D01*
X129972Y87490D02*
X132172D01*
X130072Y87590D02*
X132372D01*
X130172Y87690D02*
X132672D01*
X130272Y87790D02*
X132972D01*
X130372Y87890D02*
X133572D01*
X132672Y89290D02*
X134872D01*
X133272Y89390D02*
X134272D01*
X134372Y87790D02*
X134472D01*
X130272Y81790D02*
X133072D01*
X130172Y81890D02*
X132772D01*
X129272Y78390D02*
X131172D01*
X129172Y78490D02*
X131172D01*
X128972Y78590D02*
X131072D01*
X128872Y78690D02*
X130972D01*
X128572Y78790D02*
X130872D01*
X128372Y78890D02*
X130872D01*
X128072Y78990D02*
X130772D01*
X129672Y74090D02*
X131372D01*
X129772Y74190D02*
X131472D01*
X129772Y74290D02*
X131472D01*
X129872Y74390D02*
X131572D01*
X129972Y74490D02*
X131572D01*
X129872Y77590D02*
X131572D01*
X129772Y77690D02*
X131472D01*
X129672Y77790D02*
X131472D01*
X129672Y77890D02*
X131472D01*
X129672Y77990D02*
X131372D01*
X129572Y78090D02*
X131372D01*
X129472Y78190D02*
X131272D01*
X129372Y78290D02*
X131172D01*
X134372Y80190D02*
X134472D01*
X133772D02*
X134172D01*
X133472D02*
X133572D01*
X127672Y79090D02*
X130672D01*
X132972Y80290D02*
X134772D01*
X132472Y80390D02*
X135072D01*
X127972Y72990D02*
X130772D01*
X128272Y73090D02*
X130872D01*
X128572Y73190D02*
X130872D01*
X128772Y73290D02*
X130972D01*
X128972Y73390D02*
X130972D01*
X129072Y73490D02*
X131072D01*
X129172Y73590D02*
X131172D01*
X129272Y73690D02*
X131172D01*
X129372Y73790D02*
X131272D01*
X129472Y73890D02*
X131272D01*
X132472Y68490D02*
X134072D01*
X132472Y68590D02*
X134172D01*
X132572Y68690D02*
X134272D01*
X132572Y68790D02*
X134272D01*
X132672Y68890D02*
X134372D01*
X132672Y68990D02*
X134472D01*
X132772Y69090D02*
X134572D01*
X132772Y69190D02*
X134672D01*
X132872Y69290D02*
X134772D01*
X132972Y69390D02*
X134972D01*
X133072Y69490D02*
X135072D01*
X132972Y64190D02*
X134972D01*
X132872Y64290D02*
X134872D01*
X132872Y64390D02*
X134772D01*
X132772Y64490D02*
X134672D01*
X132672Y64590D02*
X134572D01*
X132672Y64690D02*
X134472D01*
X132572Y64790D02*
X134372D01*
X132572Y64890D02*
X134272D01*
X132572Y64990D02*
X134172D01*
X132472Y65090D02*
X134072D01*
X132372Y65190D02*
X134072D01*
X132372Y65290D02*
X133972D01*
X132372Y65390D02*
X133872D01*
X136772Y84190D02*
X142772D01*
X136572Y83490D02*
X142472D01*
X136572Y83590D02*
X142472D01*
X136672Y83690D02*
X142572D01*
X136672Y83790D02*
X142572D01*
X136672Y83890D02*
X142572D01*
X136772Y83990D02*
X142672D01*
X136772Y84090D02*
X142672D01*
X136772Y84290D02*
X142872D01*
X136872Y84390D02*
X142872D01*
X136872Y84490D02*
X142872D01*
X136872Y84590D02*
X142972D01*
X136872Y84690D02*
X142972D01*
X136872Y84790D02*
X143072D01*
X136872Y84890D02*
X143072D01*
X135272Y82090D02*
X137472D01*
X135372Y82190D02*
X137572D01*
X135572Y82290D02*
X137572D01*
X135772Y82390D02*
X137672D01*
X135872Y82490D02*
X137772D01*
X135972Y82590D02*
X137772D01*
X136072Y82690D02*
X137872D01*
X136172Y82790D02*
X137972D01*
X136172Y82890D02*
X137972D01*
X136272Y82990D02*
X137972D01*
X136372Y83090D02*
X138072D01*
X136372Y83190D02*
X138072D01*
X136472Y83290D02*
X138172D01*
X136472Y83390D02*
X138172D01*
X136272Y86590D02*
X138072D01*
X136172Y86690D02*
X137972D01*
X136072Y86790D02*
X137972D01*
X135972Y86890D02*
X137872D01*
X135872Y86990D02*
X137872D01*
X135772Y87090D02*
X137772D01*
X135672Y87190D02*
X137772D01*
X135572Y87290D02*
X137672D01*
X135472Y87390D02*
X137672D01*
X135272Y87490D02*
X137572D01*
X136772Y74490D02*
X136872D01*
X140972D02*
X141072D01*
X140972Y77590D02*
X141072D01*
X137172Y69890D02*
X139972D01*
X138772Y69090D02*
X140672D01*
X138672Y69190D02*
X140672D01*
X138572Y69290D02*
X140572D01*
X138372Y69390D02*
X140472D01*
X138272Y69490D02*
X140372D01*
X138072Y69590D02*
X140272D01*
X137872Y69690D02*
X140172D01*
X137572Y69790D02*
X140072D01*
X135372Y71190D02*
X137972D01*
X135872Y71290D02*
X137372D01*
X139272Y68590D02*
X140872D01*
X139172Y68690D02*
X140872D01*
X139072Y68790D02*
X140772D01*
X138972Y68890D02*
X140772D01*
X138872Y68990D02*
X140672D01*
X138372Y64190D02*
X140472D01*
X138572Y64290D02*
X140572D01*
X138772Y64390D02*
X140572D01*
X136972Y63690D02*
X140072D01*
X137572Y63790D02*
X140172D01*
X137872Y63890D02*
X140272D01*
X138072Y63990D02*
X140372D01*
X138272Y64090D02*
X140472D01*
X135972Y62290D02*
X137472D01*
X135472Y62390D02*
X137972D01*
X138872Y64490D02*
X140672D01*
X138972Y64590D02*
X140672D01*
X139072Y64690D02*
X140772D01*
X139172Y64790D02*
X140772D01*
X139172Y64890D02*
X140872D01*
X139272Y64990D02*
X140872D01*
X139272Y65090D02*
X140972D01*
X139372Y65190D02*
X140972D01*
X139472Y65290D02*
X141072D01*
X139572Y65390D02*
X141072D01*
X139572Y65490D02*
X141072D01*
X155772Y93090D02*
X158672D01*
X153172Y86290D02*
X158972D01*
X153472Y86190D02*
X158772D01*
X154772Y85390D02*
X158172D01*
X154672Y85490D02*
X158172D01*
X154572Y85590D02*
X158272D01*
X154372Y85690D02*
X158272D01*
X154272Y85790D02*
X158372D01*
X154072Y85890D02*
X158472D01*
X153872Y85990D02*
X158572D01*
X153672Y86090D02*
X158672D01*
X155972Y84190D02*
X158072D01*
X157072Y82090D02*
X158072D01*
X157072Y82190D02*
X158072D01*
X157072Y82290D02*
X158072D01*
X156972Y82390D02*
X158072D01*
X156972Y82490D02*
X158072D01*
X156872Y82590D02*
X158072D01*
X156872Y82690D02*
X158072D01*
X156872Y82790D02*
X158072D01*
X156872Y82890D02*
X158072D01*
X156772Y82990D02*
X158072D01*
X156772Y83090D02*
X158072D01*
X156672Y83190D02*
X158072D01*
X156572Y83290D02*
X158072D01*
X156572Y83390D02*
X158072D01*
X156572Y83490D02*
X158072D01*
X156472Y83590D02*
X158072D01*
X156372Y83690D02*
X158072D01*
X156272Y83790D02*
X158072D01*
X156272Y83890D02*
X158072D01*
X156172Y83990D02*
X158072D01*
X156072Y84090D02*
X158072D01*
X155872Y84290D02*
X158072D01*
X155872Y84390D02*
X158072D01*
X155772Y84490D02*
X158072D01*
X155672Y84590D02*
X158072D01*
X155572Y84690D02*
X158072D01*
X155572Y84790D02*
X158072D01*
X155372Y84890D02*
X158072D01*
X155272Y84990D02*
X158072D01*
X155172Y85090D02*
X158072D01*
X155072Y85190D02*
X158072D01*
X154872Y85290D02*
X158172D01*
X157372Y80190D02*
X158072D01*
X157372Y80290D02*
X158072D01*
X157372Y80390D02*
X158072D01*
X157272Y80490D02*
X158072D01*
X157272Y80590D02*
X158072D01*
X157272Y80690D02*
X158072D01*
X157272Y80790D02*
X158072D01*
X157272Y80890D02*
X158072D01*
X157272Y80990D02*
X158072D01*
X157272Y81090D02*
X158072D01*
X157272Y81190D02*
X158072D01*
X157272Y81290D02*
X158072D01*
X157272Y81390D02*
X158072D01*
X157272Y81490D02*
X158072D01*
X157172Y81590D02*
X158072D01*
X157172Y81690D02*
X158072D01*
X157172Y81790D02*
X158072D01*
X157172Y81890D02*
X158072D01*
X155472Y76190D02*
X158072D01*
X156672Y74090D02*
X158072D01*
X156672Y74190D02*
X158072D01*
X156572Y74290D02*
X158072D01*
X156472Y74390D02*
X158072D01*
X156472Y74490D02*
X158072D01*
X156372Y74590D02*
X158072D01*
X156372Y74690D02*
X158072D01*
X156272Y74790D02*
X158072D01*
X156272Y74890D02*
X158072D01*
X156172Y74990D02*
X158072D01*
X156072Y75090D02*
X158072D01*
X155972Y75190D02*
X158072D01*
X155972Y75290D02*
X158072D01*
X155872Y75390D02*
X158072D01*
X155772Y75490D02*
X158072D01*
X155672Y75590D02*
X158072D01*
X155472Y75690D02*
X158072D01*
X155372Y75790D02*
X158072D01*
X155272Y75890D02*
X158072D01*
X155272Y75990D02*
X158072D01*
X155372Y76090D02*
X158072D01*
X155572Y76290D02*
X158072D01*
X155672Y76390D02*
X158072D01*
X155772Y76490D02*
X158072D01*
X155772Y76590D02*
X158072D01*
X155872Y76690D02*
X158072D01*
X155972Y76790D02*
X158072D01*
X156072Y76890D02*
X158072D01*
X156172Y76990D02*
X158072D01*
X156272Y77090D02*
X158072D01*
X156272Y77190D02*
X158072D01*
X156372Y77290D02*
X158072D01*
X156472Y77390D02*
X158072D01*
X156572Y77490D02*
X158072D01*
X156572Y77590D02*
X158072D01*
X156572Y77690D02*
X158072D01*
X156572Y77790D02*
X158072D01*
X156672Y77890D02*
X158072D01*
X156672Y77990D02*
X158072D01*
X156772Y78090D02*
X158072D01*
X156772Y78190D02*
X158072D01*
X156872Y78290D02*
X158072D01*
X156872Y78390D02*
X158072D01*
X156972Y78490D02*
X158072D01*
X156972Y78590D02*
X158072D01*
X157072Y78690D02*
X158072D01*
X157072Y78790D02*
X158072D01*
X157072Y78890D02*
X158072D01*
X157172Y78990D02*
X158072D01*
X157172Y79090D02*
X158072D01*
X157172Y79190D02*
X158072D01*
X157172Y79290D02*
X158072D01*
X157272Y79390D02*
X158072D01*
X157272Y79490D02*
X158072D01*
X157272Y79590D02*
X158072D01*
X157272Y79690D02*
X158072D01*
X157272Y79790D02*
X158072D01*
X157272Y79890D02*
X158072D01*
X157372Y79990D02*
X158072D01*
X157372Y80090D02*
X158072D01*
X154072Y66090D02*
X158372D01*
X154272Y66190D02*
X158372D01*
X154372Y66290D02*
X158272D01*
X154472Y66390D02*
X158272D01*
X154572Y66490D02*
X158172D01*
X157272Y72190D02*
X158072D01*
X157272Y72290D02*
X158072D01*
X157172Y72390D02*
X158072D01*
X157172Y72490D02*
X158072D01*
X157172Y72590D02*
X158072D01*
X157172Y72690D02*
X158072D01*
X157172Y72790D02*
X158072D01*
X157172Y72890D02*
X158072D01*
X157072Y72990D02*
X158072D01*
X157072Y73090D02*
X158072D01*
X157072Y73190D02*
X158072D01*
X156972Y73290D02*
X158072D01*
X156972Y73390D02*
X158072D01*
X156872Y73490D02*
X158072D01*
X156872Y73590D02*
X158072D01*
X156872Y73690D02*
X158072D01*
X156772Y73790D02*
X158072D01*
X156772Y73890D02*
X158072D01*
X156372Y68190D02*
X158072D01*
X154872Y66590D02*
X158172D01*
X154972Y66690D02*
X158072D01*
X155072Y66790D02*
X158072D01*
X155172Y66890D02*
X158072D01*
X155272Y66990D02*
X158072D01*
X155372Y67090D02*
X158072D01*
X155472Y67190D02*
X158072D01*
X155572Y67290D02*
X158072D01*
X155672Y67390D02*
X158072D01*
X155772Y67490D02*
X158072D01*
X155872Y67590D02*
X158072D01*
X155972Y67690D02*
X158072D01*
X156072Y67790D02*
X158072D01*
X156172Y67890D02*
X158072D01*
X156272Y67990D02*
X158072D01*
X156272Y68090D02*
X158072D01*
X156372Y68290D02*
X158072D01*
X156472Y68390D02*
X158072D01*
X156572Y68490D02*
X158072D01*
X156572Y68590D02*
X158072D01*
X156672Y68690D02*
X158072D01*
X156772Y68790D02*
X158072D01*
X156772Y68890D02*
X158072D01*
X156872Y68990D02*
X158072D01*
X156872Y69090D02*
X158072D01*
X156872Y69190D02*
X158072D01*
X156972Y69290D02*
X158072D01*
X156972Y69390D02*
X158072D01*
X157072Y69490D02*
X158072D01*
X157072Y69590D02*
X158072D01*
X157072Y69690D02*
X158072D01*
X157072Y69790D02*
X158072D01*
X157172Y69890D02*
X158072D01*
X157172Y69990D02*
X158072D01*
X157172Y70090D02*
X158072D01*
X157172Y70190D02*
X158072D01*
X157172Y70290D02*
X158072D01*
X157272Y70390D02*
X158072D01*
X157272Y70490D02*
X158072D01*
X157272Y70590D02*
X158072D01*
X157272Y70690D02*
X158072D01*
X157272Y70790D02*
X158072D01*
X157272Y70890D02*
X158072D01*
X157272Y70990D02*
X158072D01*
X157272Y71090D02*
X158072D01*
X157272Y71190D02*
X158072D01*
X157272Y71290D02*
X158072D01*
X157372Y71390D02*
X158072D01*
X157272Y71490D02*
X158072D01*
X157272Y71590D02*
X158072D01*
X157272Y71690D02*
X158072D01*
X157272Y71790D02*
X158072D01*
X157272Y71890D02*
X158072D01*
X157272Y71990D02*
X158072D01*
X157272Y72090D02*
X158072D01*
X152672Y65590D02*
X158972D01*
X153072Y65690D02*
X158872D01*
X153372Y65790D02*
X158672D01*
X153672Y65890D02*
X158572D01*
X155872Y61290D02*
X158472D01*
X103272Y66190D02*
X133572D01*
D14*
X145787Y29881D02*
Y39881D01*
X185787D01*
X145787Y29881D02*
X185787D01*
Y39881D01*
X89468Y109843D02*
Y160236D01*
X114469Y109843D02*
Y160236D01*
X89468D02*
X114469D01*
X89468Y109843D02*
X114469D01*
X46738Y59237D02*
Y63174D01*
X34533Y59237D02*
Y63174D01*
X46738D01*
X34533Y59237D02*
X46738D01*
X74606Y58661D02*
Y62598D01*
X62402Y58661D02*
Y62598D01*
X74606D01*
X62402Y58661D02*
X74606D01*
X128347Y187017D02*
X129134D01*
X128347Y182096D02*
X129134D01*
X128347Y176476D02*
X129134D01*
X128347Y171555D02*
X129134D01*
X34370Y21614D02*
X44370D01*
X34370D02*
Y51614D01*
X44370D01*
Y21614D02*
Y51614D01*
X14370Y17913D02*
X21063D01*
X14370Y11220D02*
X21063D01*
X55630Y21614D02*
X65630D01*
X55630D02*
Y51614D01*
X65630D01*
Y21614D02*
Y51614D01*
X18110Y20867D02*
X18898D01*
X18110Y25788D02*
X18898D01*
X114291Y19410D02*
Y39410D01*
Y19410D02*
X124291D01*
Y39410D01*
X114291D02*
X124291D01*
X146024Y40669D02*
Y50669D01*
X176024D01*
Y40669D02*
Y50669D01*
X146024Y40669D02*
X176024D01*
X163445Y20374D02*
Y23720D01*
X158130Y20374D02*
Y23720D01*
X173445Y20374D02*
Y23720D01*
X168130Y20374D02*
Y23720D01*
X153445Y20374D02*
Y23720D01*
X148130Y20374D02*
Y23720D01*
X183445Y20628D02*
Y23974D01*
X178130Y20628D02*
Y23974D01*
X137196Y156693D02*
Y157480D01*
X142117Y156693D02*
Y157480D01*
X76890Y41614D02*
X86890D01*
Y21614D02*
Y41614D01*
X76890Y21614D02*
X86890D01*
X76890D02*
Y41614D01*
D15*
X55315Y55118D02*
X61221D01*
X55315Y66929D02*
X61221D01*
Y55118D02*
Y66929D01*
X55315Y55118D02*
Y66929D01*
X27250Y55418D02*
Y67229D01*
X33155Y55418D02*
Y67229D01*
X27250D02*
X33155D01*
X27250Y55418D02*
X33155D01*
X12654Y28937D02*
Y34843D01*
X24465Y28937D02*
Y34843D01*
X12654Y28937D02*
X24465D01*
X12654Y34843D02*
X24465D01*
X63189Y148819D02*
X69095D01*
X63189Y135433D02*
X69095D01*
Y148819D01*
X63189Y135433D02*
Y148819D01*
X57284Y131834D02*
Y143645D01*
X51378Y131834D02*
Y143645D01*
Y131834D02*
X57284D01*
X51378Y143645D02*
X57284D01*
X145472Y103543D02*
X151378D01*
X145472Y116929D02*
X151378D01*
X145472Y103543D02*
Y116929D01*
X151378Y103543D02*
Y116929D01*
X156890Y102756D02*
X162795D01*
X156890Y116142D02*
X162795D01*
X156890Y102756D02*
Y116142D01*
X162795Y102756D02*
Y116142D01*
X48228Y126772D02*
Y138583D01*
X42323Y126772D02*
Y138583D01*
Y126772D02*
X48228D01*
X42323Y138583D02*
X48228D01*
D16*
X25328Y211059D02*
X25000Y211387D01*
X24344D01*
X24016Y211059D01*
Y209747D01*
X24344Y209419D01*
X25000D01*
X25328Y209747D01*
X26312Y209419D02*
X26967D01*
X27296Y209747D01*
Y210403D01*
X26967Y210731D01*
X26312D01*
X25984Y210403D01*
Y209747D01*
X26312Y209419D01*
X27951D02*
Y210731D01*
X28935D01*
X29263Y210403D01*
Y209419D01*
X30247Y211059D02*
Y210731D01*
X29919D01*
X30575D01*
X30247D01*
Y209747D01*
X30575Y209419D01*
X31559Y210731D02*
Y209419D01*
Y210075D01*
X31887Y210403D01*
X32215Y210731D01*
X32543D01*
X33855Y209419D02*
X34511D01*
X34839Y209747D01*
Y210403D01*
X34511Y210731D01*
X33855D01*
X33527Y210403D01*
Y209747D01*
X33855Y209419D01*
X35495D02*
X36151D01*
X35823D01*
Y211387D01*
X35495D01*
X40415D02*
Y209419D01*
X39431D01*
X39103Y209747D01*
Y210403D01*
X39431Y210731D01*
X40415D01*
X42055Y209419D02*
X41399D01*
X41071Y209747D01*
Y210403D01*
X41399Y210731D01*
X42055D01*
X42382Y210403D01*
Y210075D01*
X41071D01*
X45006Y210731D02*
Y209747D01*
X45334Y209419D01*
X46318D01*
Y210731D01*
X46974Y209419D02*
Y210731D01*
X47958D01*
X48286Y210403D01*
Y209419D01*
X49270Y210731D02*
X49926D01*
X50254Y210403D01*
Y209419D01*
X49270D01*
X48942Y209747D01*
X49270Y210075D01*
X50254D01*
X53862Y209419D02*
X53206D01*
X52878Y209747D01*
Y210403D01*
X53206Y210731D01*
X53862D01*
X54190Y210403D01*
Y210075D01*
X52878D01*
X54846Y209419D02*
X55830D01*
X56157Y209747D01*
X55830Y210075D01*
X55174D01*
X54846Y210403D01*
X55174Y210731D01*
X56157D01*
X57141Y211059D02*
Y210731D01*
X56813D01*
X57469D01*
X57141D01*
Y209747D01*
X57469Y209419D01*
X58453Y210731D02*
Y209419D01*
Y210075D01*
X58781Y210403D01*
X59109Y210731D01*
X59437D01*
X60421D02*
Y209747D01*
X60749Y209419D01*
X61733D01*
Y210731D01*
X63701D02*
X62717D01*
X62389Y210403D01*
Y209747D01*
X62717Y209419D01*
X63701D01*
X64357Y210731D02*
Y209747D01*
X64685Y209419D01*
X65669D01*
Y210731D01*
X66653Y211059D02*
Y210731D01*
X66325D01*
X66981D01*
X66653D01*
Y209747D01*
X66981Y209419D01*
X67965Y210731D02*
Y209419D01*
Y210075D01*
X68293Y210403D01*
X68621Y210731D01*
X68949D01*
X70261D02*
X70916D01*
X71244Y210403D01*
Y209419D01*
X70261D01*
X69933Y209747D01*
X70261Y210075D01*
X71244D01*
X75180Y211387D02*
Y209419D01*
X74196D01*
X73868Y209747D01*
Y210403D01*
X74196Y210731D01*
X75180D01*
X76820Y209419D02*
X76164D01*
X75836Y209747D01*
Y210403D01*
X76164Y210731D01*
X76820D01*
X77148Y210403D01*
Y210075D01*
X75836D01*
X81084Y211387D02*
Y209419D01*
X80100D01*
X79772Y209747D01*
Y210403D01*
X80100Y210731D01*
X81084D01*
X82068Y209419D02*
X82724D01*
X83052Y209747D01*
Y210403D01*
X82724Y210731D01*
X82068D01*
X81740Y210403D01*
Y209747D01*
X82068Y209419D01*
X83707D02*
X84692D01*
X85019Y209747D01*
X84692Y210075D01*
X84035D01*
X83707Y210403D01*
X84035Y210731D01*
X85019D01*
X88299Y208763D02*
X88627D01*
X88955Y209091D01*
Y210731D01*
X87971D01*
X87643Y210403D01*
Y209747D01*
X87971Y209419D01*
X88955D01*
X89611Y210731D02*
Y209419D01*
Y210075D01*
X89939Y210403D01*
X90267Y210731D01*
X90595D01*
X91907D02*
X92563D01*
X92891Y210403D01*
Y209419D01*
X91907D01*
X91579Y209747D01*
X91907Y210075D01*
X92891D01*
X94859Y211387D02*
Y209419D01*
X93875D01*
X93547Y209747D01*
Y210403D01*
X93875Y210731D01*
X94859D01*
X95843Y209419D02*
X96499D01*
X96827Y209747D01*
Y210403D01*
X96499Y210731D01*
X95843D01*
X95515Y210403D01*
Y209747D01*
X95843Y209419D01*
X97483D02*
X98466D01*
X98795Y209747D01*
X98466Y210075D01*
X97811D01*
X97483Y210403D01*
X97811Y210731D01*
X98795D01*
X102730Y211387D02*
Y209419D01*
X101746D01*
X101418Y209747D01*
Y210403D01*
X101746Y210731D01*
X102730D01*
X104370Y209419D02*
X103714D01*
X103386Y209747D01*
Y210403D01*
X103714Y210731D01*
X104370D01*
X104698Y210403D01*
Y210075D01*
X103386D01*
X107322Y209419D02*
X107978D01*
X107650D01*
Y211387D01*
X107322D01*
X108962Y209419D02*
X109618D01*
X109290D01*
Y210731D01*
X108962D01*
X110602Y211387D02*
Y209419D01*
X111586D01*
X111914Y209747D01*
Y210075D01*
Y210403D01*
X111586Y210731D01*
X110602D01*
X113553Y209419D02*
X112898D01*
X112569Y209747D01*
Y210403D01*
X112898Y210731D01*
X113553D01*
X113881Y210403D01*
Y210075D01*
X112569D01*
X114537Y210731D02*
Y209419D01*
Y210075D01*
X114865Y210403D01*
X115193Y210731D01*
X115521D01*
X116833Y211059D02*
Y210731D01*
X116505D01*
X117161D01*
X116833D01*
Y209747D01*
X117161Y209419D01*
X118473Y210731D02*
X119129D01*
X119457Y210403D01*
Y209419D01*
X118473D01*
X118145Y209747D01*
X118473Y210075D01*
X119457D01*
X121425Y211387D02*
Y209419D01*
X120441D01*
X120113Y209747D01*
Y210403D01*
X120441Y210731D01*
X121425D01*
X24016Y207425D02*
X25328D01*
X24672D01*
Y205457D01*
X26312Y206769D02*
X26967D01*
X27296Y206441D01*
Y205457D01*
X26312D01*
X25984Y205785D01*
X26312Y206113D01*
X27296D01*
X27951Y206769D02*
Y205457D01*
Y206113D01*
X28280Y206441D01*
X28607Y206769D01*
X28935D01*
X29919Y204801D02*
X30247D01*
X30575Y205129D01*
Y206769D01*
X32871Y205457D02*
X32215D01*
X31887Y205785D01*
Y206441D01*
X32215Y206769D01*
X32871D01*
X33199Y206441D01*
Y206113D01*
X31887D01*
X34183Y207097D02*
Y206769D01*
X33855D01*
X34511D01*
X34183D01*
Y205785D01*
X34511Y205457D01*
X35823Y206769D02*
X36479D01*
X36807Y206441D01*
Y205457D01*
X35823D01*
X35495Y205785D01*
X35823Y206113D01*
X36807D01*
X40743Y207425D02*
Y205457D01*
X39759D01*
X39431Y205785D01*
Y206441D01*
X39759Y206769D01*
X40743D01*
X42382Y205457D02*
X41726D01*
X41399Y205785D01*
Y206441D01*
X41726Y206769D01*
X42382D01*
X42710Y206441D01*
Y206113D01*
X41399D01*
X46318Y205457D02*
X45662D01*
X45334Y205785D01*
Y206441D01*
X45662Y206769D01*
X46318D01*
X46646Y206441D01*
Y206113D01*
X45334D01*
X47302Y206769D02*
X48614Y205457D01*
X47958Y206113D01*
X48614Y206769D01*
X47302Y205457D01*
X49270Y204801D02*
Y206769D01*
X50254D01*
X50582Y206441D01*
Y205785D01*
X50254Y205457D01*
X49270D01*
X52222D02*
X51566D01*
X51238Y205785D01*
Y206441D01*
X51566Y206769D01*
X52222D01*
X52550Y206441D01*
Y206113D01*
X51238D01*
X53206Y205457D02*
Y206769D01*
X54190D01*
X54518Y206441D01*
Y205457D01*
X55173D02*
X56157D01*
X56485Y205785D01*
X56157Y206113D01*
X55502D01*
X55173Y206441D01*
X55502Y206769D01*
X56485D01*
X57141Y205457D02*
X57797D01*
X57469D01*
Y206769D01*
X57141D01*
X59109Y205457D02*
X59765D01*
X60093Y205785D01*
Y206441D01*
X59765Y206769D01*
X59109D01*
X58781Y206441D01*
Y205785D01*
X59109Y205457D01*
X60749D02*
Y206769D01*
X61733D01*
X62061Y206441D01*
Y205457D01*
X64685Y204801D02*
Y206769D01*
X65669D01*
X65997Y206441D01*
Y205785D01*
X65669Y205457D01*
X64685D01*
X66981Y206769D02*
X67637D01*
X67965Y206441D01*
Y205457D01*
X66981D01*
X66653Y205785D01*
X66981Y206113D01*
X67965D01*
X68621Y206769D02*
Y205457D01*
Y206113D01*
X68949Y206441D01*
X69276Y206769D01*
X69604D01*
X70916D02*
X71572D01*
X71900Y206441D01*
Y205457D01*
X70916D01*
X70588Y205785D01*
X70916Y206113D01*
X71900D01*
X74524Y205457D02*
Y207425D01*
X75836Y205457D01*
Y207425D01*
X76492D02*
Y205785D01*
X76820Y205457D01*
X77476D01*
X77804Y205785D01*
Y207425D01*
X79772Y207097D02*
X79444Y207425D01*
X78788D01*
X78460Y207097D01*
Y205785D01*
X78788Y205457D01*
X79444D01*
X79772Y205785D01*
X80428Y207425D02*
Y205457D01*
X81740D01*
X83707Y207425D02*
X82396D01*
Y205457D01*
X83707D01*
X82396Y206441D02*
X83052D01*
X85347Y207425D02*
X84691D01*
X84364Y207097D01*
Y205785D01*
X84691Y205457D01*
X85347D01*
X85675Y205785D01*
Y207097D01*
X85347Y207425D01*
X86331Y206441D02*
X87643D01*
X88299Y207425D02*
Y205457D01*
X89611D01*
X91251D02*
Y207425D01*
X90267Y206441D01*
X91579D01*
X92235Y207425D02*
X93547D01*
Y207097D01*
X92235Y205785D01*
Y205457D01*
X95515Y207425D02*
X94859Y207097D01*
X94203Y206441D01*
Y205785D01*
X94531Y205457D01*
X95187D01*
X95515Y205785D01*
Y206113D01*
X95187Y206441D01*
X94203D01*
X96171Y205457D02*
Y207425D01*
X97155D01*
X97483Y207097D01*
Y206441D01*
X97155Y206113D01*
X96171D01*
X96827D02*
X97483Y205457D01*
X99450Y207097D02*
X99122Y207425D01*
X98466D01*
X98138Y207097D01*
Y205785D01*
X98466Y205457D01*
X99122D01*
X99450Y205785D01*
Y206441D01*
X98794D01*
X24016Y198188D02*
Y200156D01*
X25000D01*
X25328Y199828D01*
Y199172D01*
X25000Y198844D01*
X24016D01*
X24672D02*
X25328Y198188D01*
X26967D02*
X26312D01*
X25984Y198516D01*
Y199172D01*
X26312Y199500D01*
X26967D01*
X27296Y199172D01*
Y198844D01*
X25984D01*
X27951Y199500D02*
X28607Y198188D01*
X29263Y199500D01*
X33199Y198188D02*
X31887D01*
X33199Y199500D01*
Y199828D01*
X32871Y200156D01*
X32215D01*
X31887Y199828D01*
X33855Y198188D02*
Y198516D01*
X34183D01*
Y198188D01*
X33855D01*
X35495Y199828D02*
X35823Y200156D01*
X36479D01*
X36807Y199828D01*
Y198516D01*
X36479Y198188D01*
X35823D01*
X35495Y198516D01*
Y199828D01*
X24016Y194882D02*
Y196850D01*
X24672Y196194D01*
X25328Y196850D01*
Y194882D01*
X26312Y196194D02*
X26967D01*
X27296Y195866D01*
Y194882D01*
X26312D01*
X25984Y195210D01*
X26312Y195538D01*
X27296D01*
X27951Y196194D02*
Y194882D01*
Y195538D01*
X28280Y195866D01*
X28607Y196194D01*
X28935D01*
X30247Y196522D02*
Y196194D01*
X29919D01*
X30575D01*
X30247D01*
Y195210D01*
X30575Y194882D01*
X31559D02*
X32215D01*
X31887D01*
Y196194D01*
X31559D01*
X33199Y194882D02*
Y196194D01*
X34183D01*
X34511Y195866D01*
Y194882D01*
X37135D02*
Y196850D01*
X38447Y194882D01*
Y196850D01*
X40087Y194882D02*
X39431D01*
X39103Y195210D01*
Y195866D01*
X39431Y196194D01*
X40087D01*
X40415Y195866D01*
Y195538D01*
X39103D01*
X41071Y194882D02*
Y196194D01*
X42055D01*
X42382Y195866D01*
Y194882D01*
X43038D02*
Y196850D01*
Y195538D02*
X44022Y196194D01*
X43038Y195538D02*
X44022Y194882D01*
X45334D02*
X45990D01*
X46318Y195210D01*
Y195866D01*
X45990Y196194D01*
X45334D01*
X45006Y195866D01*
Y195210D01*
X45334Y194882D01*
X46974Y196194D02*
X47630Y194882D01*
X48286Y196194D01*
D17*
X122835Y166929D02*
Y169291D01*
X124016D01*
X124410Y168897D01*
Y168110D01*
X124016Y167717D01*
X122835D01*
X123622D02*
X124410Y166929D01*
X126377D02*
Y169291D01*
X125197Y168110D01*
X126771D01*
X122442Y189371D02*
Y191732D01*
X123622D01*
X124016Y191338D01*
Y190551D01*
X123622Y190158D01*
X122442D01*
X123229D02*
X124016Y189371D01*
X124803Y191338D02*
X125197Y191732D01*
X125984D01*
X126377Y191338D01*
Y190945D01*
X125984Y190551D01*
X125590D01*
X125984D01*
X126377Y190158D01*
Y189764D01*
X125984Y189371D01*
X125197D01*
X124803Y189764D01*
X62205Y71653D02*
Y69685D01*
X62599Y69292D01*
X63386D01*
X63780Y69685D01*
Y71653D01*
X64567Y71260D02*
X64960Y71653D01*
X65747D01*
X66141Y71260D01*
Y70866D01*
X65747Y70472D01*
X65354D01*
X65747D01*
X66141Y70079D01*
Y69685D01*
X65747Y69292D01*
X64960D01*
X64567Y69685D01*
X53150Y129921D02*
X52757Y130315D01*
X51969D01*
X51576Y129921D01*
Y129527D01*
X51969Y129134D01*
X52757D01*
X53150Y128740D01*
Y128347D01*
X52757Y127953D01*
X51969D01*
X51576Y128347D01*
X53937Y130315D02*
Y127953D01*
X55118D01*
X55512Y128347D01*
Y128740D01*
X55118Y129134D01*
X53937D01*
X55118D01*
X55512Y129527D01*
Y129921D01*
X55118Y130315D01*
X53937D01*
X57873D02*
X57086Y129921D01*
X56299Y129134D01*
Y128347D01*
X56692Y127953D01*
X57479D01*
X57873Y128347D01*
Y128740D01*
X57479Y129134D01*
X56299D01*
X114174Y15355D02*
Y17716D01*
X115355D01*
X115748Y17323D01*
Y16535D01*
X115355Y16142D01*
X114174D01*
X117716Y15355D02*
Y17716D01*
X116535Y16535D01*
X118110D01*
X158268Y159843D02*
X157874Y160237D01*
X157087D01*
X156694Y159843D01*
Y158269D01*
X157087Y157875D01*
X157874D01*
X158268Y158269D01*
X160629Y157875D02*
X159055D01*
X160629Y159450D01*
Y159843D01*
X160236Y160237D01*
X159449D01*
X159055Y159843D01*
X61418Y17323D02*
Y19685D01*
X62599D01*
X62992Y19291D01*
Y18504D01*
X62599Y18110D01*
X61418D01*
X65354Y19685D02*
X63779D01*
Y18504D01*
X64567Y18898D01*
X64960D01*
X65354Y18504D01*
Y17717D01*
X64960Y17323D01*
X64173D01*
X63779Y17717D01*
X35040Y72441D02*
Y70473D01*
X35434Y70079D01*
X36221D01*
X36614Y70473D01*
Y72441D01*
X38582Y70079D02*
Y72441D01*
X37401Y71260D01*
X38976D01*
X105906Y153937D02*
Y151969D01*
X106300Y151575D01*
X107087D01*
X107480Y151969D01*
Y153937D01*
X108267Y151575D02*
X109055D01*
X108661D01*
Y153937D01*
X108267Y153543D01*
X23622Y56891D02*
X23229Y56497D01*
Y55710D01*
X23622Y55316D01*
X24016D01*
X24409Y55710D01*
Y56497D01*
X24803Y56891D01*
X25197D01*
X25590Y56497D01*
Y55710D01*
X25197Y55316D01*
X23229Y57678D02*
X25590D01*
Y58859D01*
X25197Y59252D01*
X24803D01*
X24409Y58859D01*
Y57678D01*
Y58859D01*
X24016Y59252D01*
X23622D01*
X23229Y58859D01*
Y57678D01*
X25590Y60039D02*
Y60826D01*
Y60433D01*
X23229D01*
X23622Y60039D01*
Y62007D02*
X23229Y62401D01*
Y63188D01*
X23622Y63581D01*
X25197D01*
X25590Y63188D01*
Y62401D01*
X25197Y62007D01*
X23622D01*
X53543Y60236D02*
X53937Y60629D01*
Y61416D01*
X53543Y61810D01*
X53149D01*
X52756Y61416D01*
Y60629D01*
X52362Y60236D01*
X51969D01*
X51575Y60629D01*
Y61416D01*
X51969Y61810D01*
X53937Y59449D02*
X51575D01*
Y58268D01*
X51969Y57874D01*
X52362D01*
X52756Y58268D01*
Y59449D01*
Y58268D01*
X53149Y57874D01*
X53543D01*
X53937Y58268D01*
Y59449D01*
X51969Y57087D02*
X51575Y56694D01*
Y55906D01*
X51969Y55513D01*
X53543D01*
X53937Y55906D01*
Y56694D01*
X53543Y57087D01*
X53149D01*
X52756Y56694D01*
Y55513D01*
X7874Y21654D02*
X7481Y21260D01*
Y20473D01*
X7874Y20080D01*
X8268D01*
X8661Y20473D01*
Y21260D01*
X9055Y21654D01*
X9449D01*
X9842Y21260D01*
Y20473D01*
X9449Y20080D01*
X7481Y22441D02*
X9842D01*
Y23622D01*
X9449Y24015D01*
X9055D01*
X8661Y23622D01*
Y22441D01*
Y23622D01*
X8268Y24015D01*
X7874D01*
X7481Y23622D01*
Y22441D01*
Y24803D02*
Y26377D01*
X7874D01*
X9449Y24803D01*
X9842D01*
X42520Y125197D02*
X42127Y125590D01*
X41339D01*
X40946Y125197D01*
Y124803D01*
X41339Y124409D01*
X42127D01*
X42520Y124016D01*
Y123622D01*
X42127Y123229D01*
X41339D01*
X40946Y123622D01*
X43307Y125590D02*
Y123229D01*
X44488D01*
X44882Y123622D01*
Y124016D01*
X44488Y124409D01*
X43307D01*
X44488D01*
X44882Y124803D01*
Y125197D01*
X44488Y125590D01*
X43307D01*
X47243D02*
X45669D01*
Y124409D01*
X46456Y124803D01*
X46850D01*
X47243Y124409D01*
Y123622D01*
X46850Y123229D01*
X46062D01*
X45669Y123622D01*
X142126Y109056D02*
X141733Y108662D01*
Y107875D01*
X142126Y107481D01*
X142520D01*
X142913Y107875D01*
Y108662D01*
X143307Y109056D01*
X143701D01*
X144094Y108662D01*
Y107875D01*
X143701Y107481D01*
X141733Y109843D02*
X144094D01*
Y111023D01*
X143701Y111417D01*
X143307D01*
X142913Y111023D01*
Y109843D01*
Y111023D01*
X142520Y111417D01*
X142126D01*
X141733Y111023D01*
Y109843D01*
X142126Y112204D02*
X141733Y112598D01*
Y113385D01*
X142126Y113778D01*
X142520D01*
X142913Y113385D01*
Y112991D01*
Y113385D01*
X143307Y113778D01*
X143701D01*
X144094Y113385D01*
Y112598D01*
X143701Y112204D01*
X166535Y114566D02*
X166929Y114960D01*
Y115747D01*
X166535Y116141D01*
X166142D01*
X165748Y115747D01*
Y114960D01*
X165355Y114566D01*
X164961D01*
X164567Y114960D01*
Y115747D01*
X164961Y116141D01*
X166929Y113779D02*
X164567D01*
Y112599D01*
X164961Y112205D01*
X165355D01*
X165748Y112599D01*
Y113779D01*
Y112599D01*
X166142Y112205D01*
X166535D01*
X166929Y112599D01*
Y113779D01*
X164567Y109844D02*
Y111418D01*
X166142Y109844D01*
X166535D01*
X166929Y110237D01*
Y111024D01*
X166535Y111418D01*
X64961Y133858D02*
X64567Y134252D01*
X63780D01*
X63387Y133858D01*
Y133464D01*
X63780Y133071D01*
X64567D01*
X64961Y132677D01*
Y132284D01*
X64567Y131890D01*
X63780D01*
X63387Y132284D01*
X65748Y134252D02*
Y131890D01*
X66929D01*
X67322Y132284D01*
Y132677D01*
X66929Y133071D01*
X65748D01*
X66929D01*
X67322Y133464D01*
Y133858D01*
X66929Y134252D01*
X65748D01*
X68110Y131890D02*
X68897D01*
X68503D01*
Y134252D01*
X68110Y133858D01*
X20473Y36221D02*
Y38582D01*
X21654D01*
X22047Y38189D01*
Y37402D01*
X21654Y37008D01*
X20473D01*
X21260D02*
X22047Y36221D01*
X24409D02*
X22835D01*
X24409Y37795D01*
Y38189D01*
X24015Y38582D01*
X23228D01*
X22835Y38189D01*
X136901Y164961D02*
Y167322D01*
X138082D01*
X138475Y166929D01*
Y166142D01*
X138082Y165748D01*
X136901D01*
X137688D02*
X138475Y164961D01*
X139262D02*
X140050D01*
X139656D01*
Y167322D01*
X139262Y166929D01*
X40552Y17717D02*
Y20078D01*
X41732D01*
X42126Y19685D01*
Y18898D01*
X41732Y18504D01*
X40552D01*
X44488Y20078D02*
X43700Y19685D01*
X42913Y18898D01*
Y18111D01*
X43307Y17717D01*
X44094D01*
X44488Y18111D01*
Y18504D01*
X44094Y18898D01*
X42913D01*
X177953Y40945D02*
Y43307D01*
X179134D01*
X179528Y42913D01*
Y42126D01*
X179134Y41732D01*
X177953D01*
X180315Y42913D02*
X180708Y43307D01*
X181496D01*
X181889Y42913D01*
Y42520D01*
X181496Y42126D01*
X181102D01*
X181496D01*
X181889Y41732D01*
Y41339D01*
X181496Y40945D01*
X180708D01*
X180315Y41339D01*
X187796Y30315D02*
Y32677D01*
X188977D01*
X189370Y32283D01*
Y31496D01*
X188977Y31102D01*
X187796D01*
X191732Y30315D02*
X190157D01*
X191732Y31890D01*
Y32283D01*
X191338Y32677D01*
X190551D01*
X190157Y32283D01*
X83465Y17323D02*
Y19685D01*
X84646D01*
X85039Y19291D01*
Y18504D01*
X84646Y18110D01*
X83465D01*
X85826Y17323D02*
X86614D01*
X86220D01*
Y19685D01*
X85826Y19291D01*
X13780Y8267D02*
Y5906D01*
X14961D01*
X15355Y6300D01*
Y7874D01*
X14961Y8267D01*
X13780D01*
X17716D02*
X16142D01*
Y7087D01*
X16929Y7480D01*
X17322D01*
X17716Y7087D01*
Y6300D01*
X17322Y5906D01*
X16535D01*
X16142Y6300D01*
X185040Y15354D02*
Y12992D01*
X186221D01*
X186614Y13386D01*
Y14960D01*
X186221Y15354D01*
X185040D01*
X188582Y12992D02*
Y15354D01*
X187401Y14173D01*
X188976D01*
X172442Y14960D02*
Y12599D01*
X173622D01*
X174016Y12992D01*
Y14567D01*
X173622Y14960D01*
X172442D01*
X174803Y14567D02*
X175197Y14960D01*
X175984D01*
X176377Y14567D01*
Y14173D01*
X175984Y13780D01*
X175590D01*
X175984D01*
X176377Y13386D01*
Y12992D01*
X175984Y12599D01*
X175197D01*
X174803Y12992D01*
X155906Y15354D02*
Y12992D01*
X157087D01*
X157480Y13386D01*
Y14960D01*
X157087Y15354D01*
X155906D01*
X159842Y12992D02*
X158268D01*
X159842Y14567D01*
Y14960D01*
X159448Y15354D01*
X158661D01*
X158268Y14960D01*
X144095Y15748D02*
Y13386D01*
X145276D01*
X145669Y13780D01*
Y15354D01*
X145276Y15748D01*
X144095D01*
X146456Y13386D02*
X147244D01*
X146850D01*
Y15748D01*
X146456Y15354D01*
X108860Y169351D02*
X108466Y168957D01*
Y168170D01*
X108860Y167776D01*
X110434D01*
X110827Y168170D01*
Y168957D01*
X110434Y169351D01*
X110827Y171318D02*
X108466D01*
X109647Y170138D01*
Y171712D01*
X83860Y169026D02*
X83467Y168632D01*
Y167845D01*
X83860Y167451D01*
X85435D01*
X85828Y167845D01*
Y168632D01*
X85435Y169026D01*
X83860Y169813D02*
X83467Y170206D01*
Y170993D01*
X83860Y171387D01*
X84254D01*
X84648Y170993D01*
Y170600D01*
Y170993D01*
X85041Y171387D01*
X85435D01*
X85828Y170993D01*
Y170206D01*
X85435Y169813D01*
X143307Y132283D02*
X142913Y132677D01*
X142126D01*
X141733Y132283D01*
Y130709D01*
X142126Y130315D01*
X142913D01*
X143307Y130709D01*
X144094Y130315D02*
X144881D01*
X144488D01*
Y132677D01*
X144094Y132283D01*
M02*
