M48
;Layer_Color=9474304
;FILE_FORMAT=2:4
INCH,TZ
;TYPE=PLATED
T1F00S00C0.0118
T2F00S00C0.0300
T3F00S00C0.0354
%
T01
X906Y1378
X4055
X5630
X8780
X10354
X11929
X13504
X15079
X16654
X18465Y2205
X19803Y1378
Y4528
X14291Y2953
X9567
X12717Y6102
X14291
X15866
X17441
X19016
X18228Y7677
X16654
X15079
X13504
X11929
X12717Y9252
X14291
X15866
X17441
X19016
X18228Y10827
X19016Y12402
X19055Y13898
X19016Y15551
X19016Y17087
X19016Y18701
X20591
X17441
X15866
X14291
X15079Y20276
X16654
X18228
X17441Y15551
X16220Y15315
X16142Y13346
X15866Y12402
X14291
X13504Y13976
X15079
Y17126
X12795Y15748
X10276Y16260
X9646Y15945
X9055Y16260
X8386
X7795
X7362Y15787
X5630Y17126
X6417Y18701
X7992
X9567
X11142
X10354Y20276
X11929
X8780
X7205
X5630
X6929Y13032
X6417Y9252
X5630Y7677
X11142Y9252
X11929Y10827
X13740Y10512
X11142Y12402
X20591
X4843
X3268
X1693
X2480Y13976
X4055
X4528Y14134
X5433Y14685
X3268Y15551
X1693
X2480Y17126
X4055
X4843Y18701
X3268
X1693
X906Y20276
X2480
X4055
X4843Y9252
X3268
X4055Y7677
X4843Y6102
X19016Y21850
T02
X1000Y5402
X20000
Y6402
Y7402
Y8402
Y9402
Y10402
Y11402
Y12402
Y14000
Y15000
Y16000
Y17000
Y18000
Y19000
Y20000
Y21000
X1000Y19402
Y18402
Y17402
Y16402
Y15402
Y14402
Y13402
Y12402
Y10402
Y9402
Y8402
Y7402
Y6402
X20000Y22000
Y23000
T03
X3937Y2661
Y3661
Y4661
X6063Y4661
Y3661
Y2661
X8189
Y3661
X11929Y3441
Y2441
X15079Y3488
X16079
X17079
X18079
X17102Y4567
X16102
X15102
M30
