G04*
G04 #@! TF.GenerationSoftware,Altium Limited,Altium Designer,21.2.0 (30)*
G04*
G04 Layer_Color=8388736*
%FSLAX25Y25*%
%MOIN*%
G70*
G04*
G04 #@! TF.SameCoordinates,23E6F6A8-B4C1-47F9-9D7B-204F1C257D05*
G04*
G04*
G04 #@! TF.FilePolarity,Negative*
G04*
G01*
G75*
%ADD18O,0.08661X0.02953*%
G04:AMPARAMS|DCode=19|XSize=27.56mil|YSize=37.4mil|CornerRadius=4.9mil|HoleSize=0mil|Usage=FLASHONLY|Rotation=0.000|XOffset=0mil|YOffset=0mil|HoleType=Round|Shape=RoundedRectangle|*
%AMROUNDEDRECTD19*
21,1,0.02756,0.02760,0,0,0.0*
21,1,0.01776,0.03740,0,0,0.0*
1,1,0.00980,0.00888,-0.01380*
1,1,0.00980,-0.00888,-0.01380*
1,1,0.00980,-0.00888,0.01380*
1,1,0.00980,0.00888,0.01380*
%
%ADD19ROUNDEDRECTD19*%
%ADD20R,0.06693X0.06693*%
%ADD21R,0.05315X0.06299*%
%ADD22R,0.01591X0.01591*%
%ADD23R,0.03150X0.03150*%
%ADD24R,0.01591X0.01591*%
%ADD25R,0.06693X0.06693*%
%ADD26R,0.02362X0.02362*%
%ADD27R,0.06299X0.05315*%
%ADD28C,0.06496*%
%ADD29R,0.06496X0.06496*%
%ADD30R,0.06496X0.06496*%
%ADD31C,0.06591*%
%ADD32C,0.02953*%
G36*
X68288Y148306D02*
X68333Y148295D01*
X68376Y148277D01*
X68416Y148253D01*
X68451Y148223D01*
X68481Y148187D01*
X68506Y148148D01*
X68523Y148105D01*
X68534Y148060D01*
X68538Y148013D01*
Y145613D01*
X68534Y145567D01*
X68523Y145522D01*
X68511Y145492D01*
X68506Y145479D01*
X68481Y145439D01*
X68451Y145404D01*
X67851Y144804D01*
X67816Y144774D01*
X67776Y144749D01*
X67764Y144744D01*
X67733Y144732D01*
X67688Y144721D01*
X67642Y144717D01*
X64642D01*
X64595Y144721D01*
X64550Y144732D01*
X64520Y144744D01*
X64507Y144749D01*
X64468Y144774D01*
X64432Y144804D01*
X63832Y145404D01*
X63802Y145439D01*
X63778Y145479D01*
X63773Y145492D01*
X63760Y145522D01*
X63749Y145567D01*
X63745Y145613D01*
Y148013D01*
X63749Y148060D01*
X63760Y148105D01*
X63778Y148148D01*
X63802Y148187D01*
X63832Y148223D01*
X63868Y148253D01*
X63907Y148277D01*
X63950Y148295D01*
X63995Y148306D01*
X64042Y148310D01*
X68242D01*
X68288Y148306D01*
D02*
G37*
G36*
Y144518D02*
X68333Y144508D01*
X68364Y144495D01*
X68376Y144490D01*
X68416Y144466D01*
X68451Y144435D01*
X68481Y144400D01*
X68506Y144360D01*
X68511Y144348D01*
X68523Y144317D01*
X68534Y144272D01*
X68538Y144226D01*
Y140026D01*
X68534Y139980D01*
X68523Y139934D01*
X68511Y139904D01*
X68506Y139892D01*
X68481Y139852D01*
X68451Y139816D01*
X68416Y139786D01*
X68376Y139762D01*
X68364Y139757D01*
X68333Y139744D01*
X68288Y139733D01*
X68242Y139730D01*
X68195Y139733D01*
X68150Y139744D01*
X68120Y139757D01*
X68107Y139762D01*
X68068Y139786D01*
X68032Y139816D01*
X67519Y140330D01*
X64764D01*
X64251Y139816D01*
X64216Y139786D01*
X64176Y139762D01*
X64164Y139757D01*
X64133Y139744D01*
X64088Y139733D01*
X64042Y139730D01*
X63995Y139733D01*
X63950Y139744D01*
X63920Y139757D01*
X63907Y139762D01*
X63868Y139786D01*
X63832Y139816D01*
X63802Y139852D01*
X63778Y139892D01*
X63773Y139904D01*
X63760Y139934D01*
X63749Y139980D01*
X63745Y140026D01*
Y144226D01*
X63749Y144272D01*
X63760Y144317D01*
X63773Y144348D01*
X63778Y144360D01*
X63802Y144400D01*
X63832Y144435D01*
X63868Y144466D01*
X63907Y144490D01*
X63920Y144495D01*
X63950Y144508D01*
X63995Y144518D01*
X64042Y144522D01*
X64088Y144518D01*
X64133Y144508D01*
X64164Y144495D01*
X64176Y144490D01*
X64216Y144466D01*
X64251Y144435D01*
X64764Y143922D01*
X67519D01*
X68032Y144435D01*
X68068Y144466D01*
X68107Y144490D01*
X68120Y144495D01*
X68150Y144508D01*
X68195Y144518D01*
X68242Y144522D01*
X68288Y144518D01*
D02*
G37*
G36*
X56477Y143132D02*
X56522Y143121D01*
X56565Y143103D01*
X56605Y143079D01*
X56640Y143049D01*
X56670Y143014D01*
X56695Y142974D01*
X56712Y142931D01*
X56723Y142886D01*
X56727Y142839D01*
Y139239D01*
X56723Y139193D01*
X56712Y139148D01*
X56700Y139118D01*
X56695Y139105D01*
X56670Y139065D01*
X56640Y139030D01*
X55440Y137830D01*
X55405Y137800D01*
X55365Y137776D01*
X55353Y137770D01*
X55322Y137758D01*
X55277Y137747D01*
X55231Y137743D01*
X55231Y137743D01*
X53431D01*
X53384Y137747D01*
X53339Y137758D01*
X53309Y137770D01*
X53296Y137776D01*
X53257Y137800D01*
X53221Y137830D01*
X52021Y139030D01*
X51991Y139065D01*
X51967Y139105D01*
X51962Y139118D01*
X51949Y139148D01*
X51938Y139193D01*
X51934Y139239D01*
X51934Y139240D01*
Y142839D01*
X51938Y142886D01*
X51949Y142931D01*
X51967Y142974D01*
X51991Y143014D01*
X52021Y143049D01*
X52057Y143079D01*
X52096Y143103D01*
X52139Y143121D01*
X52184Y143132D01*
X52231Y143136D01*
X56431D01*
X56477Y143132D01*
D02*
G37*
G36*
Y138145D02*
X56522Y138134D01*
X56565Y138116D01*
X56605Y138092D01*
X56640Y138061D01*
X56670Y138026D01*
X56695Y137986D01*
X56712Y137943D01*
X56723Y137898D01*
X56727Y137852D01*
X56727Y137852D01*
X56727Y132621D01*
X56723Y132575D01*
X56712Y132530D01*
X56695Y132487D01*
X56670Y132447D01*
X56640Y132412D01*
X56605Y132382D01*
X56565Y132357D01*
X56522Y132340D01*
X56477Y132329D01*
X56431Y132325D01*
X52231D01*
X52184Y132329D01*
X52139Y132340D01*
X52096Y132357D01*
X52057Y132382D01*
X52021Y132412D01*
X51991Y132447D01*
X51967Y132487D01*
X51949Y132530D01*
X51938Y132575D01*
X51934Y132621D01*
X51934Y137852D01*
X51938Y137898D01*
X51949Y137943D01*
X51962Y137974D01*
X51967Y137986D01*
X51991Y138026D01*
X52021Y138061D01*
X52057Y138092D01*
X52096Y138116D01*
X52109Y138121D01*
X52139Y138134D01*
X52184Y138145D01*
X52231Y138148D01*
X52277Y138145D01*
X52322Y138134D01*
X52353Y138121D01*
X52365Y138116D01*
X52405Y138092D01*
X52440Y138061D01*
X53553Y136948D01*
X55108D01*
X56221Y138061D01*
X56257Y138092D01*
X56296Y138116D01*
X56309Y138121D01*
X56339Y138134D01*
X56384Y138145D01*
X56431Y138148D01*
X56477Y138145D01*
D02*
G37*
G36*
X67688Y139531D02*
X67733Y139520D01*
X67764Y139508D01*
X67776Y139503D01*
X67816Y139478D01*
X67851Y139448D01*
X68451Y138848D01*
X68481Y138813D01*
X68506Y138773D01*
X68511Y138760D01*
X68523Y138730D01*
X68534Y138685D01*
X68538Y138639D01*
Y136239D01*
X68534Y136192D01*
X68523Y136147D01*
X68506Y136104D01*
X68481Y136065D01*
X68451Y136029D01*
X68416Y135999D01*
X68376Y135975D01*
X68333Y135957D01*
X68288Y135946D01*
X68242Y135942D01*
X64042D01*
X63995Y135946D01*
X63950Y135957D01*
X63907Y135975D01*
X63868Y135999D01*
X63832Y136029D01*
X63802Y136065D01*
X63778Y136104D01*
X63760Y136147D01*
X63749Y136192D01*
X63745Y136239D01*
Y138639D01*
X63749Y138685D01*
X63760Y138730D01*
X63773Y138760D01*
X63778Y138773D01*
X63802Y138813D01*
X63832Y138848D01*
X64432Y139448D01*
X64468Y139478D01*
X64507Y139503D01*
X64520Y139508D01*
X64550Y139520D01*
X64595Y139531D01*
X64642Y139535D01*
X67642D01*
X67688Y139531D01*
D02*
G37*
G36*
X47422Y138070D02*
X47467Y138059D01*
X47510Y138041D01*
X47550Y138017D01*
X47585Y137987D01*
X47615Y137951D01*
X47640Y137912D01*
X47657Y137869D01*
X47668Y137823D01*
X47672Y137777D01*
Y134177D01*
X47668Y134131D01*
X47657Y134086D01*
X47645Y134055D01*
X47640Y134043D01*
X47615Y134003D01*
X47585Y133968D01*
X46385Y132768D01*
X46350Y132738D01*
X46310Y132713D01*
X46297Y132708D01*
X46267Y132695D01*
X46222Y132685D01*
X46176Y132681D01*
X46176Y132681D01*
X44376D01*
X44329Y132685D01*
X44284Y132695D01*
X44254Y132708D01*
X44241Y132713D01*
X44201Y132738D01*
X44166Y132768D01*
X42966Y133968D01*
X42936Y134003D01*
X42912Y134043D01*
X42906Y134055D01*
X42894Y134086D01*
X42883Y134131D01*
X42879Y134177D01*
X42879Y134177D01*
Y137777D01*
X42883Y137823D01*
X42894Y137869D01*
X42912Y137912D01*
X42936Y137951D01*
X42966Y137987D01*
X43001Y138017D01*
X43041Y138041D01*
X43084Y138059D01*
X43129Y138070D01*
X43176Y138073D01*
X47376D01*
X47422Y138070D01*
D02*
G37*
G36*
Y133082D02*
X47467Y133071D01*
X47510Y133054D01*
X47550Y133029D01*
X47585Y132999D01*
X47615Y132964D01*
X47640Y132924D01*
X47657Y132881D01*
X47668Y132836D01*
X47672Y132790D01*
X47672Y132790D01*
X47672Y127559D01*
X47668Y127513D01*
X47657Y127468D01*
X47640Y127425D01*
X47615Y127385D01*
X47585Y127350D01*
X47550Y127320D01*
X47510Y127295D01*
X47467Y127277D01*
X47422Y127267D01*
X47376Y127263D01*
X43176D01*
X43129Y127267D01*
X43084Y127277D01*
X43041Y127295D01*
X43001Y127320D01*
X42966Y127350D01*
X42936Y127385D01*
X42912Y127425D01*
X42894Y127468D01*
X42883Y127513D01*
X42879Y127559D01*
X42879Y132790D01*
X42883Y132836D01*
X42894Y132881D01*
X42906Y132912D01*
X42912Y132924D01*
X42936Y132964D01*
X42966Y132999D01*
X43001Y133029D01*
X43041Y133054D01*
X43054Y133059D01*
X43084Y133071D01*
X43129Y133082D01*
X43176Y133086D01*
X43222Y133082D01*
X43267Y133071D01*
X43297Y133059D01*
X43310Y133054D01*
X43350Y133029D01*
X43385Y132999D01*
X44498Y131886D01*
X46053D01*
X47166Y132999D01*
X47201Y133029D01*
X47241Y133054D01*
X47254Y133059D01*
X47284Y133071D01*
X47329Y133082D01*
X47376Y133086D01*
X47422Y133082D01*
D02*
G37*
G36*
X150572Y116416D02*
X150617Y116405D01*
X150660Y116387D01*
X150699Y116363D01*
X150735Y116333D01*
X150765Y116298D01*
X150789Y116258D01*
X150807Y116215D01*
X150818Y116170D01*
X150821Y116124D01*
Y113724D01*
X150818Y113677D01*
X150807Y113632D01*
X150794Y113602D01*
X150789Y113589D01*
X150765Y113549D01*
X150735Y113514D01*
X150135Y112914D01*
X150099Y112884D01*
X150060Y112860D01*
X150047Y112855D01*
X150017Y112842D01*
X149971Y112831D01*
X149925Y112827D01*
X146925D01*
X146879Y112831D01*
X146834Y112842D01*
X146803Y112855D01*
X146791Y112860D01*
X146751Y112884D01*
X146716Y112914D01*
X146116Y113514D01*
X146086Y113549D01*
X146061Y113589D01*
X146056Y113602D01*
X146044Y113632D01*
X146033Y113677D01*
X146029Y113724D01*
Y116124D01*
X146033Y116170D01*
X146044Y116215D01*
X146061Y116258D01*
X146086Y116298D01*
X146116Y116333D01*
X146151Y116363D01*
X146191Y116387D01*
X146234Y116405D01*
X146279Y116416D01*
X146325Y116420D01*
X150525D01*
X150572Y116416D01*
D02*
G37*
G36*
X161989Y115629D02*
X162034Y115618D01*
X162077Y115600D01*
X162117Y115576D01*
X162152Y115546D01*
X162182Y115510D01*
X162206Y115471D01*
X162224Y115428D01*
X162235Y115383D01*
X162239Y115336D01*
Y112936D01*
X162235Y112890D01*
X162224Y112845D01*
X162212Y112814D01*
X162206Y112802D01*
X162182Y112762D01*
X162152Y112727D01*
X161552Y112127D01*
X161517Y112097D01*
X161477Y112072D01*
X161464Y112067D01*
X161434Y112055D01*
X161389Y112044D01*
X161343Y112040D01*
X158343D01*
X158296Y112044D01*
X158251Y112055D01*
X158221Y112067D01*
X158208Y112072D01*
X158168Y112097D01*
X158133Y112127D01*
X157533Y112727D01*
X157503Y112762D01*
X157479Y112802D01*
X157473Y112814D01*
X157461Y112845D01*
X157450Y112890D01*
X157446Y112936D01*
Y115336D01*
X157450Y115383D01*
X157461Y115428D01*
X157479Y115471D01*
X157503Y115510D01*
X157533Y115546D01*
X157568Y115576D01*
X157608Y115600D01*
X157651Y115618D01*
X157696Y115629D01*
X157743Y115632D01*
X161943D01*
X161989Y115629D01*
D02*
G37*
G36*
X150572Y112629D02*
X150617Y112618D01*
X150647Y112605D01*
X150660Y112600D01*
X150699Y112576D01*
X150735Y112546D01*
X150765Y112510D01*
X150789Y112471D01*
X150794Y112458D01*
X150807Y112428D01*
X150818Y112382D01*
X150821Y112336D01*
Y108136D01*
X150818Y108090D01*
X150807Y108045D01*
X150794Y108014D01*
X150789Y108002D01*
X150765Y107962D01*
X150735Y107927D01*
X150699Y107897D01*
X150660Y107872D01*
X150647Y107867D01*
X150617Y107854D01*
X150572Y107844D01*
X150525Y107840D01*
X150479Y107844D01*
X150434Y107854D01*
X150403Y107867D01*
X150391Y107872D01*
X150351Y107897D01*
X150316Y107927D01*
X149802Y108440D01*
X147048D01*
X146535Y107927D01*
X146499Y107897D01*
X146460Y107872D01*
X146447Y107867D01*
X146417Y107854D01*
X146371Y107844D01*
X146325Y107840D01*
X146279Y107844D01*
X146234Y107854D01*
X146203Y107867D01*
X146191Y107872D01*
X146151Y107897D01*
X146116Y107927D01*
X146086Y107962D01*
X146061Y108002D01*
X146056Y108014D01*
X146044Y108045D01*
X146033Y108090D01*
X146029Y108136D01*
Y112336D01*
X146033Y112382D01*
X146044Y112428D01*
X146056Y112458D01*
X146061Y112471D01*
X146086Y112510D01*
X146116Y112546D01*
X146151Y112576D01*
X146191Y112600D01*
X146203Y112605D01*
X146234Y112618D01*
X146279Y112629D01*
X146325Y112632D01*
X146371Y112629D01*
X146417Y112618D01*
X146447Y112605D01*
X146460Y112600D01*
X146499Y112576D01*
X146535Y112546D01*
X147048Y112032D01*
X149802D01*
X150316Y112546D01*
X150351Y112576D01*
X150391Y112600D01*
X150403Y112605D01*
X150434Y112618D01*
X150479Y112629D01*
X150525Y112632D01*
X150572Y112629D01*
D02*
G37*
G36*
X161989Y111841D02*
X162034Y111830D01*
X162064Y111818D01*
X162077Y111813D01*
X162117Y111788D01*
X162152Y111758D01*
X162182Y111723D01*
X162206Y111683D01*
X162212Y111671D01*
X162224Y111640D01*
X162235Y111595D01*
X162239Y111549D01*
Y107349D01*
X162235Y107302D01*
X162224Y107257D01*
X162212Y107227D01*
X162206Y107214D01*
X162182Y107175D01*
X162152Y107139D01*
X162117Y107109D01*
X162077Y107085D01*
X162064Y107080D01*
X162034Y107067D01*
X161989Y107056D01*
X161943Y107053D01*
X161896Y107056D01*
X161851Y107067D01*
X161821Y107080D01*
X161808Y107085D01*
X161768Y107109D01*
X161733Y107139D01*
X161220Y107653D01*
X158465D01*
X157952Y107139D01*
X157917Y107109D01*
X157877Y107085D01*
X157864Y107080D01*
X157834Y107067D01*
X157789Y107056D01*
X157743Y107053D01*
X157696Y107056D01*
X157651Y107067D01*
X157621Y107080D01*
X157608Y107085D01*
X157568Y107109D01*
X157533Y107139D01*
X157503Y107175D01*
X157479Y107214D01*
X157473Y107227D01*
X157461Y107257D01*
X157450Y107302D01*
X157446Y107349D01*
Y111549D01*
X157450Y111595D01*
X157461Y111640D01*
X157473Y111671D01*
X157479Y111683D01*
X157503Y111723D01*
X157533Y111758D01*
X157568Y111788D01*
X157608Y111813D01*
X157621Y111818D01*
X157651Y111830D01*
X157696Y111841D01*
X157743Y111845D01*
X157789Y111841D01*
X157834Y111830D01*
X157864Y111818D01*
X157877Y111813D01*
X157917Y111788D01*
X157952Y111758D01*
X158465Y111245D01*
X161220D01*
X161733Y111758D01*
X161768Y111788D01*
X161808Y111813D01*
X161821Y111818D01*
X161851Y111830D01*
X161896Y111841D01*
X161943Y111845D01*
X161989Y111841D01*
D02*
G37*
G36*
X149971Y107641D02*
X150017Y107631D01*
X150047Y107618D01*
X150060Y107613D01*
X150099Y107588D01*
X150135Y107558D01*
X150735Y106958D01*
X150765Y106923D01*
X150789Y106883D01*
X150794Y106871D01*
X150807Y106840D01*
X150818Y106795D01*
X150821Y106749D01*
Y104349D01*
X150818Y104303D01*
X150807Y104257D01*
X150789Y104214D01*
X150765Y104175D01*
X150735Y104139D01*
X150699Y104109D01*
X150660Y104085D01*
X150617Y104067D01*
X150572Y104056D01*
X150525Y104053D01*
X146325D01*
X146279Y104056D01*
X146234Y104067D01*
X146191Y104085D01*
X146151Y104109D01*
X146116Y104139D01*
X146086Y104175D01*
X146061Y104214D01*
X146044Y104257D01*
X146033Y104303D01*
X146029Y104349D01*
Y106749D01*
X146033Y106795D01*
X146044Y106840D01*
X146056Y106871D01*
X146061Y106883D01*
X146086Y106923D01*
X146116Y106958D01*
X146716Y107558D01*
X146751Y107588D01*
X146791Y107613D01*
X146803Y107618D01*
X146834Y107631D01*
X146879Y107641D01*
X146925Y107645D01*
X149925D01*
X149971Y107641D01*
D02*
G37*
G36*
X161389Y106854D02*
X161434Y106843D01*
X161464Y106831D01*
X161477Y106825D01*
X161517Y106801D01*
X161552Y106771D01*
X162152Y106171D01*
X162182Y106135D01*
X162206Y106096D01*
X162212Y106083D01*
X162224Y106053D01*
X162235Y106008D01*
X162239Y105961D01*
Y103561D01*
X162235Y103515D01*
X162224Y103470D01*
X162206Y103427D01*
X162182Y103387D01*
X162152Y103352D01*
X162117Y103322D01*
X162077Y103297D01*
X162034Y103280D01*
X161989Y103269D01*
X161943Y103265D01*
X157743D01*
X157696Y103269D01*
X157651Y103280D01*
X157608Y103297D01*
X157568Y103322D01*
X157533Y103352D01*
X157503Y103387D01*
X157479Y103427D01*
X157461Y103470D01*
X157450Y103515D01*
X157446Y103561D01*
Y105961D01*
X157450Y106008D01*
X157461Y106053D01*
X157473Y106083D01*
X157479Y106096D01*
X157503Y106135D01*
X157533Y106171D01*
X158133Y106771D01*
X158168Y106801D01*
X158208Y106825D01*
X158221Y106831D01*
X158251Y106843D01*
X158296Y106854D01*
X158343Y106858D01*
X161343D01*
X161389Y106854D01*
D02*
G37*
G36*
X32349Y66734D02*
X32394Y66723D01*
X32437Y66706D01*
X32476Y66681D01*
X32512Y66651D01*
X32542Y66616D01*
X32566Y66576D01*
X32584Y66533D01*
X32595Y66488D01*
X32599Y66442D01*
X32599Y61211D01*
X32595Y61165D01*
X32584Y61120D01*
X32572Y61089D01*
X32566Y61076D01*
X32542Y61037D01*
X32512Y61002D01*
X32476Y60971D01*
X32437Y60947D01*
X32424Y60942D01*
X32394Y60929D01*
X32349Y60918D01*
X32302Y60915D01*
X32256Y60918D01*
X32211Y60929D01*
X32181Y60942D01*
X32168Y60947D01*
X32128Y60971D01*
X32093Y61002D01*
X30980Y62115D01*
X29425D01*
X28312Y61002D01*
X28277Y60971D01*
X28237Y60947D01*
X28224Y60942D01*
X28194Y60929D01*
X28149Y60918D01*
X28102Y60915D01*
X28056Y60918D01*
X28011Y60929D01*
X27968Y60947D01*
X27928Y60971D01*
X27893Y61002D01*
X27863Y61037D01*
X27839Y61076D01*
X27821Y61120D01*
X27810Y61165D01*
X27806Y61211D01*
X27806Y61211D01*
X27806Y66442D01*
X27810Y66488D01*
X27821Y66533D01*
X27839Y66576D01*
X27863Y66616D01*
X27893Y66651D01*
X27928Y66681D01*
X27968Y66706D01*
X28011Y66723D01*
X28056Y66734D01*
X28102Y66738D01*
X32302D01*
X32349Y66734D01*
D02*
G37*
G36*
X60414Y66434D02*
X60459Y66423D01*
X60502Y66406D01*
X60542Y66381D01*
X60577Y66351D01*
X60607Y66316D01*
X60632Y66276D01*
X60649Y66233D01*
X60660Y66188D01*
X60664Y66142D01*
X60664Y60911D01*
X60660Y60865D01*
X60649Y60820D01*
X60637Y60789D01*
X60632Y60777D01*
X60607Y60737D01*
X60577Y60702D01*
X60542Y60671D01*
X60502Y60647D01*
X60490Y60642D01*
X60459Y60629D01*
X60414Y60619D01*
X60368Y60615D01*
X60321Y60619D01*
X60276Y60629D01*
X60246Y60642D01*
X60233Y60647D01*
X60194Y60671D01*
X60158Y60702D01*
X59045Y61815D01*
X57490D01*
X56377Y60702D01*
X56342Y60671D01*
X56302Y60647D01*
X56290Y60642D01*
X56259Y60629D01*
X56214Y60619D01*
X56168Y60615D01*
X56121Y60619D01*
X56076Y60629D01*
X56033Y60647D01*
X55994Y60671D01*
X55958Y60702D01*
X55928Y60737D01*
X55904Y60777D01*
X55886Y60820D01*
X55875Y60865D01*
X55871Y60911D01*
X55871Y60911D01*
X55871Y66142D01*
X55875Y66188D01*
X55886Y66233D01*
X55904Y66276D01*
X55928Y66316D01*
X55958Y66351D01*
X55994Y66381D01*
X56033Y66406D01*
X56076Y66423D01*
X56121Y66434D01*
X56168Y66438D01*
X60368D01*
X60414Y66434D01*
D02*
G37*
G36*
X29302Y61320D02*
X31102D01*
X31149Y61316D01*
X31194Y61305D01*
X31224Y61293D01*
X31237Y61287D01*
X31277Y61263D01*
X31312Y61233D01*
X32512Y60033D01*
X32542Y59998D01*
X32566Y59958D01*
X32572Y59945D01*
X32584Y59915D01*
X32595Y59870D01*
X32599Y59824D01*
X32599Y59824D01*
Y56224D01*
X32595Y56177D01*
X32584Y56132D01*
X32566Y56089D01*
X32542Y56050D01*
X32512Y56014D01*
X32476Y55984D01*
X32437Y55960D01*
X32394Y55942D01*
X32349Y55931D01*
X32302Y55927D01*
X28102D01*
X28056Y55931D01*
X28011Y55942D01*
X27968Y55960D01*
X27928Y55984D01*
X27893Y56014D01*
X27863Y56050D01*
X27839Y56089D01*
X27821Y56132D01*
X27810Y56177D01*
X27806Y56224D01*
Y59824D01*
X27810Y59870D01*
X27821Y59915D01*
X27833Y59945D01*
X27839Y59958D01*
X27863Y59998D01*
X27893Y60033D01*
X29093Y61233D01*
X29128Y61263D01*
X29168Y61287D01*
X29180Y61293D01*
X29211Y61305D01*
X29256Y61316D01*
X29302Y61320D01*
X29302Y61320D01*
D02*
G37*
G36*
X57368Y61020D02*
X59168D01*
X59214Y61016D01*
X59259Y61005D01*
X59290Y60993D01*
X59302Y60988D01*
X59342Y60963D01*
X59377Y60933D01*
X60577Y59733D01*
X60607Y59698D01*
X60632Y59658D01*
X60637Y59645D01*
X60649Y59615D01*
X60660Y59570D01*
X60664Y59524D01*
X60664Y59523D01*
Y55924D01*
X60660Y55877D01*
X60649Y55832D01*
X60632Y55789D01*
X60607Y55749D01*
X60577Y55714D01*
X60542Y55684D01*
X60502Y55660D01*
X60459Y55642D01*
X60414Y55631D01*
X60368Y55627D01*
X56168D01*
X56121Y55631D01*
X56076Y55642D01*
X56033Y55660D01*
X55994Y55684D01*
X55958Y55714D01*
X55928Y55749D01*
X55904Y55789D01*
X55886Y55832D01*
X55875Y55877D01*
X55871Y55924D01*
Y59524D01*
X55875Y59570D01*
X55886Y59615D01*
X55899Y59645D01*
X55904Y59658D01*
X55928Y59698D01*
X55958Y59733D01*
X57158Y60933D01*
X57194Y60963D01*
X57233Y60988D01*
X57246Y60993D01*
X57276Y61005D01*
X57321Y61016D01*
X57368Y61020D01*
X57368Y61020D01*
D02*
G37*
G36*
X18447Y34286D02*
X23678Y34286D01*
X23724Y34282D01*
X23769Y34271D01*
X23812Y34254D01*
X23852Y34229D01*
X23887Y34199D01*
X23918Y34164D01*
X23942Y34124D01*
X23960Y34081D01*
X23970Y34036D01*
X23974Y33990D01*
Y29790D01*
X23970Y29743D01*
X23960Y29698D01*
X23942Y29655D01*
X23918Y29616D01*
X23887Y29580D01*
X23852Y29550D01*
X23812Y29526D01*
X23769Y29508D01*
X23724Y29497D01*
X23678Y29494D01*
X18447Y29494D01*
X18401Y29497D01*
X18356Y29508D01*
X18325Y29521D01*
X18313Y29526D01*
X18273Y29550D01*
X18238Y29580D01*
X18208Y29616D01*
X18183Y29655D01*
X18178Y29668D01*
X18166Y29698D01*
X18155Y29743D01*
X18151Y29790D01*
X18155Y29836D01*
X18166Y29881D01*
X18178Y29912D01*
X18183Y29924D01*
X18208Y29964D01*
X18238Y29999D01*
X19351Y31113D01*
Y32667D01*
X18238Y33780D01*
X18208Y33816D01*
X18183Y33855D01*
X18178Y33868D01*
X18166Y33898D01*
X18155Y33943D01*
X18151Y33990D01*
X18155Y34036D01*
X18166Y34081D01*
X18183Y34124D01*
X18208Y34164D01*
X18238Y34199D01*
X18273Y34229D01*
X18313Y34254D01*
X18356Y34271D01*
X18401Y34282D01*
X18447Y34286D01*
X18447Y34286D01*
D02*
G37*
G36*
X17106Y34282D02*
X17151Y34271D01*
X17182Y34259D01*
X17194Y34254D01*
X17234Y34229D01*
X17269Y34199D01*
X18469Y32999D01*
X18499Y32964D01*
X18524Y32924D01*
X18529Y32912D01*
X18541Y32881D01*
X18552Y32836D01*
X18556Y32790D01*
X18556Y32790D01*
Y30990D01*
X18552Y30943D01*
X18541Y30898D01*
X18529Y30868D01*
X18524Y30855D01*
X18499Y30816D01*
X18469Y30780D01*
X17269Y29580D01*
X17234Y29550D01*
X17194Y29526D01*
X17182Y29521D01*
X17151Y29508D01*
X17106Y29497D01*
X17060Y29494D01*
X17060Y29494D01*
X13460D01*
X13413Y29497D01*
X13368Y29508D01*
X13325Y29526D01*
X13286Y29550D01*
X13250Y29580D01*
X13220Y29616D01*
X13196Y29655D01*
X13178Y29698D01*
X13167Y29743D01*
X13164Y29790D01*
Y33990D01*
X13167Y34036D01*
X13178Y34081D01*
X13196Y34124D01*
X13220Y34164D01*
X13250Y34199D01*
X13286Y34229D01*
X13325Y34254D01*
X13368Y34271D01*
X13413Y34282D01*
X13460Y34286D01*
X17060D01*
X17106Y34282D01*
D02*
G37*
D18*
X83858Y157539D02*
D03*
Y152539D02*
D03*
Y147539D02*
D03*
Y142539D02*
D03*
Y137539D02*
D03*
Y132539D02*
D03*
Y127539D02*
D03*
Y122539D02*
D03*
Y117539D02*
D03*
Y112539D02*
D03*
X120079Y157539D02*
D03*
Y152539D02*
D03*
Y147539D02*
D03*
Y142539D02*
D03*
Y137539D02*
D03*
Y132539D02*
D03*
Y127539D02*
D03*
Y122539D02*
D03*
Y117539D02*
D03*
Y112539D02*
D03*
D19*
X44376Y66226D02*
D03*
X40635D02*
D03*
X36895D02*
D03*
Y56186D02*
D03*
X44376D02*
D03*
X72244Y65650D02*
D03*
X68504D02*
D03*
X64764D02*
D03*
Y55610D02*
D03*
X72244D02*
D03*
D20*
X102756Y168966D02*
D03*
Y176249D02*
D03*
X90551Y169064D02*
D03*
Y176347D02*
D03*
D21*
X124803Y184556D02*
D03*
X132677D02*
D03*
X124803Y174016D02*
D03*
X132677D02*
D03*
X22441Y23328D02*
D03*
X14567D02*
D03*
D22*
X58268Y58024D02*
D03*
Y64511D02*
D03*
X30202Y64811D02*
D03*
Y58324D02*
D03*
X66142Y142126D02*
D03*
Y137739D02*
D03*
Y146513D02*
D03*
X54331Y134252D02*
D03*
Y140739D02*
D03*
X148425Y110236D02*
D03*
Y114624D02*
D03*
Y105849D02*
D03*
X159843Y109449D02*
D03*
Y113836D02*
D03*
Y105061D02*
D03*
X45276Y129190D02*
D03*
Y135677D02*
D03*
D23*
X14764Y14567D02*
D03*
X20669D02*
D03*
D24*
X15560Y31890D02*
D03*
X22047D02*
D03*
D25*
X156791Y133659D02*
D03*
X149508D02*
D03*
X150295Y153150D02*
D03*
X157579D02*
D03*
D26*
X160787Y26378D02*
D03*
Y17717D02*
D03*
X170787Y26378D02*
D03*
Y17717D02*
D03*
X150787Y26378D02*
D03*
Y17717D02*
D03*
X180787Y26632D02*
D03*
Y17970D02*
D03*
D27*
X139656Y153150D02*
D03*
Y161024D02*
D03*
D28*
X180787Y34881D02*
D03*
X170787D02*
D03*
X160787D02*
D03*
X39370Y46614D02*
D03*
Y36614D02*
D03*
X60630Y46614D02*
D03*
Y36614D02*
D03*
X119291Y34409D02*
D03*
X171024Y45669D02*
D03*
X161024D02*
D03*
X81890Y36614D02*
D03*
D29*
X150787Y34881D02*
D03*
X151024Y45669D02*
D03*
D30*
X39370Y26614D02*
D03*
X60630Y26614D02*
D03*
X119291Y24409D02*
D03*
X81890Y26614D02*
D03*
D31*
X10000Y194016D02*
D03*
X200000Y124016D02*
D03*
Y94016D02*
D03*
Y230000D02*
D03*
Y220000D02*
D03*
Y210000D02*
D03*
Y200000D02*
D03*
Y190000D02*
D03*
Y180000D02*
D03*
Y170000D02*
D03*
Y160000D02*
D03*
Y150000D02*
D03*
Y140000D02*
D03*
Y114016D02*
D03*
Y104016D02*
D03*
Y84016D02*
D03*
Y74016D02*
D03*
Y64016D02*
D03*
Y54016D02*
D03*
X10000Y184016D02*
D03*
Y174016D02*
D03*
Y164016D02*
D03*
Y154016D02*
D03*
Y144016D02*
D03*
Y134016D02*
D03*
Y104016D02*
D03*
Y94016D02*
D03*
Y84016D02*
D03*
Y74016D02*
D03*
Y64016D02*
D03*
Y124016D02*
D03*
Y54016D02*
D03*
D32*
X32677Y187008D02*
D03*
Y92520D02*
D03*
X56299Y202756D02*
D03*
X190551Y138976D02*
D03*
X190157Y170866D02*
D03*
X205906Y187008D02*
D03*
Y124016D02*
D03*
X198031Y45276D02*
D03*
Y13780D02*
D03*
X190157Y218504D02*
D03*
X182283Y202756D02*
D03*
X190157Y187008D02*
D03*
Y155512D02*
D03*
Y124016D02*
D03*
X182283Y108268D02*
D03*
X190157Y92520D02*
D03*
X182283Y76772D02*
D03*
X190157Y61024D02*
D03*
X166535Y202756D02*
D03*
X174409Y187008D02*
D03*
Y155512D02*
D03*
Y92520D02*
D03*
X166535Y76772D02*
D03*
X174409Y61024D02*
D03*
X166535Y13780D02*
D03*
X150787Y202756D02*
D03*
X158661Y187008D02*
D03*
X150787Y171260D02*
D03*
Y139764D02*
D03*
X158661Y124016D02*
D03*
Y92520D02*
D03*
X150787Y76772D02*
D03*
X158661Y61024D02*
D03*
X150787Y13780D02*
D03*
X142913Y187008D02*
D03*
X135039Y139764D02*
D03*
X142913Y124016D02*
D03*
Y92520D02*
D03*
X135039Y76772D02*
D03*
X142913Y61024D02*
D03*
Y29528D02*
D03*
X135039Y13780D02*
D03*
X119291Y202756D02*
D03*
Y108268D02*
D03*
X127165Y92520D02*
D03*
X119291Y76772D02*
D03*
X127165Y61024D02*
D03*
X119291Y13780D02*
D03*
X103543Y202756D02*
D03*
X111417Y187008D02*
D03*
Y124016D02*
D03*
Y92520D02*
D03*
X103543Y13780D02*
D03*
X87795Y202756D02*
D03*
X95669Y187008D02*
D03*
Y29528D02*
D03*
X87795Y13780D02*
D03*
X72047Y202756D02*
D03*
X79921Y187008D02*
D03*
X64173D02*
D03*
X56299Y171260D02*
D03*
X64173Y92520D02*
D03*
X56299Y76772D02*
D03*
Y13780D02*
D03*
X40551Y202756D02*
D03*
X48425Y187008D02*
D03*
X40551Y171260D02*
D03*
Y139764D02*
D03*
X48425Y124016D02*
D03*
Y92520D02*
D03*
X40551Y76772D02*
D03*
X48425Y61024D02*
D03*
X40551Y13780D02*
D03*
X24803Y202756D02*
D03*
Y171260D02*
D03*
X32677Y155512D02*
D03*
X24803Y139764D02*
D03*
X32677Y124016D02*
D03*
X9055Y202756D02*
D03*
X16929Y187008D02*
D03*
Y155512D02*
D03*
Y124016D02*
D03*
X9055Y13780D02*
D03*
X83858Y162598D02*
D03*
X77953D02*
D03*
X73622Y157874D02*
D03*
X96457Y159449D02*
D03*
X102756Y162598D02*
D03*
X90551D02*
D03*
X127953Y157480D02*
D03*
X137402Y105118D02*
D03*
X161417Y133465D02*
D03*
X45276Y141339D02*
D03*
X54331Y146850D02*
D03*
X69291Y130315D02*
D03*
X184646Y22047D02*
D03*
X162205Y153150D02*
D03*
M02*
